<svg width="207" height="202" viewBox="0 0 207 202" fill="none" xmlns="http://www.w3.org/2000/svg">
<path opacity="0.1" d="M105.874 201.377C161.311 201.377 206.252 156.437 206.252 101C206.252 45.5631 161.311 0.62265 105.874 0.62265C50.4375 0.62265 5.49707 45.5631 5.49707 101C5.49707 156.437 50.4375 201.377 105.874 201.377Z" fill="#F4F7FA"/>
<path d="M141.359 154.932C140.071 154.5 138.92 153.736 138.022 152.716C137.124 151.696 136.512 150.457 136.247 149.124L132.447 130.317L99.9418 131.472L95.941 151.065C95.3811 153.808 97.6238 156.562 100.206 157.572L113.806 162.893C116.333 163.883 119.053 164.277 121.757 164.046L150.497 161.588C150.907 161.551 151.291 161.374 151.584 161.086C151.878 160.799 152.063 160.419 152.109 160.01C152.207 159.163 152.795 158.211 151.994 157.946L141.359 154.932Z" fill="#97A6B7"/>
<path d="M141.683 153.789C140.402 153.368 139.254 152.617 138.357 151.61C137.46 150.603 136.846 149.377 136.576 148.056L132.779 129.486L101.066 130.627L97.0695 149.97C96.7994 151.282 97.0029 152.647 97.644 153.823C98.2851 154.999 99.3222 155.91 100.571 156.394L114.157 161.648C116.684 162.625 119.4 163.015 122.1 162.787L150.816 160.363C151.223 160.328 151.605 160.154 151.899 159.87C152.192 159.585 152.379 159.209 152.426 158.803C152.473 158.397 152.379 157.987 152.159 157.643C151.939 157.299 151.607 157.041 151.219 156.914L141.683 153.789Z" fill="url(#paint0_linear)"/>
<path d="M193.591 117.244V32.9133C193.591 31.184 192.165 29.712 190.42 29.6417L45.5385 23.8184C43.3338 23.7295 41.5234 25.2524 41.5234 27.204V120.402L193.591 117.244Z" fill="url(#paint1_linear)"/>
<path d="M187.296 33.854L49.6577 28.719C47.6502 28.6473 46.0068 30.0389 46.0068 31.8192V112.974C46.0068 114.79 47.6867 116.229 49.7351 116.171L187.236 112.261C188.878 112.214 190.217 110.85 190.217 109.229V36.8495C190.215 35.2621 188.903 33.9142 187.296 33.854Z" fill="url(#paint2_linear)"/>
<path d="M41.5244 120.402V139.014C41.5244 140.965 43.3334 142.485 45.5395 142.392L190.421 136.267C192.167 136.195 193.592 134.718 193.592 132.989V116.702L41.5244 120.402Z" fill="url(#paint3_linear)"/>
<g style="mix-blend-mode:soft-light" opacity="0.48">
<g style="mix-blend-mode:soft-light" opacity="0.48">
<path d="M177.899 106.356C165.997 102.337 156.155 110.535 147.603 104.081C137.96 96.8034 145.753 82.8238 136.834 74.5878C124.443 63.1469 99.6709 80.8901 88.9112 70.1038C81.5141 62.6881 90.2397 50.817 83.9762 38.3265C80.7913 31.9762 74.8239 27.6471 67.5795 24.7039L45.5395 23.8177C43.3348 23.7288 41.5244 25.2517 41.5244 27.2033V139.014C41.5244 140.965 43.3334 142.485 45.5395 142.392L190.421 136.267C192.167 136.195 193.593 134.718 193.593 132.989V120.954C188.489 111.935 182.857 108.031 177.899 106.356Z" fill="white"/>
</g>
</g>
<path d="M83.4904 108.925L69.206 116.925C69.206 116.925 62.4134 111.103 63.0178 103.971C64.251 89.4166 51.4206 89.3556 46.0504 88.5246C37.9521 87.2714 32.2844 82.968 36.9849 75.4827C42.3049 67.0152 29.3225 59.6733 15.9508 59.5342C2.86736 59.3987 -4.44155 36.0623 23.9043 33.7558C40.8322 32.3784 46.7222 47.8452 51.5532 54.9483C56.3843 62.0515 67.8359 56.4497 69.1437 67.7006C70.2607 77.3082 67.2745 86.4468 74.982 89.1671C82.6896 91.8873 86.5412 97.6203 83.4904 108.925Z" fill="url(#paint4_linear)"/>
<g style="mix-blend-mode:soft-light" opacity="0.7">
<g style="mix-blend-mode:soft-light" opacity="0.7">
<g style="mix-blend-mode:soft-light" opacity="0.7">
<path d="M78.0501 113.714L77.7231 113.825C77.6514 113.622 70.6508 93.3656 57.6534 75.3773C45.6798 58.805 26.0195 40.8238 0.357288 49.2705L0.249023 48.9422C11.6727 45.1816 22.8762 46.2556 33.5492 52.1327C42.0748 56.8275 50.2807 64.5817 57.9373 75.1801C70.9634 93.2107 77.9805 113.511 78.0501 113.714Z" fill="white"/>
</g>
<g style="mix-blend-mode:soft-light" opacity="0.7">
<path d="M37.9031 54.782L37.5826 54.9125C33.2441 44.2581 21.5258 32.2351 21.4082 32.1125L21.6548 31.8701C21.7739 31.9927 33.5395 44.0645 37.9031 54.782Z" fill="white"/>
</g>
<g style="mix-blend-mode:soft-light" opacity="0.7">
<path d="M30.6846 51.0608C16.9903 50.4213 9.20599 58.7684 9.12927 58.8523L8.87402 58.6193C8.95217 58.5332 16.8397 50.0678 30.7011 50.7153L30.6846 51.0608Z" fill="white"/>
</g>
<g style="mix-blend-mode:soft-light" opacity="0.7">
<path d="M65.5096 87.6004C54.1748 75.2682 32.8869 82.6138 32.6833 82.7027L32.5234 82.3965C32.7127 82.2904 54.329 74.927 65.7641 87.3666L65.5096 87.6004Z" fill="white"/>
</g>
<g style="mix-blend-mode:soft-light" opacity="0.7">
<path d="M62.2288 81.5239L61.899 81.6279C58.6826 71.4353 65.0695 59.608 65.1354 59.4868L65.4387 59.6532C65.3735 59.7736 59.059 71.474 62.2288 81.5239Z" fill="white"/>
</g>
<g style="mix-blend-mode:soft-light" opacity="0.7">
<path d="M76.5509 110.662C73.0169 105.371 62.6616 105.414 62.5576 105.416V105.07C62.9878 105.066 73.2034 105.024 76.842 110.47L76.5509 110.662Z" fill="white"/>
</g>
<g style="mix-blend-mode:soft-light" opacity="0.7">
<path d="M74.9585 105.842L74.633 105.958C72.9488 101.218 76.789 92.7361 78.0509 89.9485C78.2294 89.5548 78.3828 89.2143 78.3986 89.1483L78.7363 89.22C78.7155 89.3132 78.6144 89.5398 78.3656 90.0883C77.1166 92.8472 73.3194 101.234 74.9585 105.842Z" fill="white"/>
</g>
</g>
</g>
<path d="M88.8259 149.333L89.1127 149.368C94.8084 150.026 101.149 149.738 108.125 147.934L112.129 146.592C112.305 143.054 111.839 139.657 107.363 139.637C100.413 139.605 96.955 128.414 97.5408 123.925C98.2621 118.369 99.6753 105.395 88.9313 105.176C79.987 104.993 74.1787 106.703 70.5049 96.336C66.8311 85.9692 59.1508 81.0866 49.7798 84.5223C39.9185 88.1381 27.7377 77.1776 20.8138 84.0764C8.75345 96.0973 28.5844 115.492 48.0189 117.086C67.4534 118.68 59.2891 127.913 61.3548 136.675C64.1725 148.635 79.3467 141.441 84.9098 144.83C86.7968 145.979 88.025 147.599 88.8259 149.333Z" fill="url(#paint5_linear)"/>
<g style="mix-blend-mode:soft-light" opacity="0.7">
<g style="mix-blend-mode:soft-light" opacity="0.7">
<g style="mix-blend-mode:soft-light" opacity="0.7">
<path d="M99.5222 149.404L99.9595 149.172C82.9886 117.218 50.5954 93.6574 15.4174 87.6828L15.335 88.1704C50.3659 94.117 82.6229 117.583 99.5222 149.404Z" fill="#FCFDFE"/>
</g>
<g style="mix-blend-mode:soft-light" opacity="0.7">
<path d="M88.7769 132.775L89.2516 132.632C85.1934 119.004 93.6968 104.908 93.7836 104.768L93.362 104.509C93.2738 104.657 84.655 118.933 88.7769 132.775Z" fill="#FCFDFE"/>
</g>
<g style="mix-blend-mode:soft-light" opacity="0.7">
<path d="M96.2399 143.611L96.5905 143.262C86.4094 133.056 60.7945 138.81 60.5371 138.87L60.6482 139.352C60.9056 139.293 86.2531 133.6 96.2399 143.611Z" fill="#FCFDFE"/>
</g>
<g style="mix-blend-mode:soft-light" opacity="0.7">
<path d="M63.1421 108.272L63.5214 107.954C56.1659 99.1982 58.1211 81.772 58.1441 81.5971L57.6529 81.539C57.6293 81.7132 55.6504 99.3546 63.1421 108.272Z" fill="#FCFDFE"/>
</g>
<g style="mix-blend-mode:soft-light" opacity="0.7">
<path d="M43.2485 96.7748L43.3769 96.2966C30.7902 92.9268 15.3873 101.445 15.2324 101.531L15.4748 101.961C15.6268 101.878 30.8583 93.4559 43.2485 96.7748Z" fill="#FCFDFE"/>
</g>
</g>
</g>
<path d="M124.912 159.111C123.021 154.937 120.857 148.486 121.752 140.965C122.781 132.33 126.903 130.177 129.79 120.751C133.911 107.297 126.654 98.6648 131.941 94.1148C134.518 91.8965 138.896 91.419 141.808 93.0487C150.109 97.6997 150.594 121.833 139.382 132.489C134.312 137.309 129.433 137.332 125.877 143.244C122.734 148.464 123.713 154.798 124.912 159.111Z" fill="url(#paint6_linear)"/>
<g style="mix-blend-mode:soft-light">
<g style="mix-blend-mode:soft-light">
<g style="mix-blend-mode:soft-light">
<path d="M122.866 148.316L122.713 148.294C122.98 146.413 123.408 144.559 123.992 142.751C125.331 138.614 127.043 136.236 129.21 133.225C130.618 131.27 132.213 129.055 133.995 125.934C137.326 120.098 138.337 118.067 139.091 114.893C140.198 110.18 140.161 105.27 138.985 100.574C138.021 96.8156 136.327 93.2832 134 90.1779L134.124 90.0847C136.463 93.2056 138.166 96.7557 139.135 100.533C140.318 105.254 140.354 110.189 139.242 114.927C138.483 118.117 137.471 120.155 134.129 126.007C132.344 129.134 130.746 131.353 129.336 133.311C127.177 136.311 125.471 138.68 124.14 142.794C123.558 144.595 123.132 146.442 122.866 148.316Z" fill="white"/>
</g>
<g style="mix-blend-mode:soft-light">
<path d="M139.816 110.536L139.8 110.409C138.725 101.903 128.172 100.095 128.065 100.078L128.091 99.9246C128.197 99.9418 138.756 101.752 139.937 110.259C140.385 109.924 142.198 108.484 143.713 106.083C145.311 103.549 146.895 99.3933 145.362 93.9851L145.511 93.9427C147.057 99.4083 145.454 103.609 143.837 106.171C142.086 108.945 139.939 110.448 139.917 110.463L139.816 110.536Z" fill="white"/>
</g>
<g style="mix-blend-mode:soft-light">
<path d="M139.128 124.984C136.732 124.984 134.999 124.424 134.964 124.41L134.902 124.389L134.912 124.325C135.584 119.827 134.238 116.715 132.99 114.896C131.64 112.926 130.115 112.009 130.1 112L130.179 111.867C130.241 111.903 136.335 115.624 135.075 124.282C135.803 124.501 142.747 126.416 147.874 121.448L147.982 121.559C145.137 124.32 141.739 124.984 139.128 124.984Z" fill="white"/>
</g>
<g style="mix-blend-mode:soft-light">
<path d="M135.016 133.909C131.647 133.909 129.782 132.594 129.755 132.572L129.71 132.539L129.727 132.486C131.182 127.837 127.687 120.865 127.652 120.794L127.791 120.723C127.827 120.794 131.321 127.768 129.891 132.476C130.393 132.804 134.955 135.544 142.505 131.817L142.576 131.956C139.566 133.445 137.023 133.909 135.016 133.909Z" fill="white"/>
</g>
</g>
</g>
<g style="mix-blend-mode:soft-light">
<path style="mix-blend-mode:soft-light" d="M120.746 157.57C119.764 154.052 118.816 148.493 121.188 143.172C125.327 133.889 134.915 135.778 142.776 125.463C149.115 117.141 146.222 111.524 153.611 105.649C154.848 104.665 161.362 99.2857 166.881 101.5C169.992 102.747 171.406 105.85 171.672 106.432C175.687 115.232 167.944 130.535 156.531 138.388C149.976 142.9 147.596 141.917 135.818 147.629C130.382 150.272 125.315 153.614 120.746 157.57Z" fill="url(#paint7_linear)"/>
<g style="mix-blend-mode:soft-light">
<g style="mix-blend-mode:soft-light">
<path d="M120.179 161.991L120.024 161.976C120.877 153.216 123.635 147.092 128.222 143.775C130.467 142.151 132.35 141.729 134.343 141.281C136.483 140.8 138.697 140.303 141.46 138.193C144.145 136.144 144.994 134.358 146.069 132.099C147.036 130.064 148.241 127.53 151.178 124.011C153.753 120.928 155.706 119.401 157.43 118.056C159.294 116.6 160.769 115.45 162.337 112.855C164.9 108.615 165.916 103.425 165.357 97.4294L165.512 97.4151C166.073 103.445 165.05 108.667 162.47 112.935C160.887 115.555 159.404 116.713 157.523 118.178C155.806 119.519 153.86 121.038 151.295 124.11C148.37 127.614 147.17 130.138 146.204 132.166C145.121 134.446 144.268 136.246 141.55 138.319C138.76 140.449 136.531 140.95 134.373 141.435C132.396 141.879 130.529 142.295 128.308 143.903C123.763 147.191 121.027 153.277 120.179 161.991Z" fill="white"/>
</g>
<g style="mix-blend-mode:soft-light">
<path d="M156.629 118.789L156.651 118.687C156.677 118.564 159.232 106.266 154.321 101.833L154.425 101.718C159.157 105.993 157.06 117.42 156.824 118.618C169.338 117.59 174.881 107.576 174.935 107.471L175.071 107.543C175.016 107.646 169.403 117.791 156.733 118.778L156.629 118.789Z" fill="white"/>
</g>
<g style="mix-blend-mode:soft-light">
<path d="M155.894 128.958C151.485 128.958 148.415 127.986 148.384 127.976L148.32 127.955L148.331 127.889C149.369 121.508 146.901 112.856 146.876 112.769L147.025 112.726C147.05 112.813 149.51 121.438 148.495 127.847C148.968 127.991 152.04 128.851 156.263 128.8C160.487 128.749 166.769 127.743 172.697 123.252L172.791 123.376C166.827 127.893 160.509 128.903 156.26 128.955C156.137 128.957 156.015 128.958 155.894 128.958Z" fill="white"/>
</g>
<g style="mix-blend-mode:soft-light">
<path d="M150.771 144.076C146.895 144.076 143.755 143.516 141.565 142.946C138.171 142.062 136.259 140.966 136.241 140.955L136.169 140.914L136.213 140.842C140.292 134.592 137.432 125.304 137.4 125.212L137.548 125.165C137.577 125.258 140.44 134.546 136.388 140.858C137.188 141.288 144.593 145.072 156.128 143.566L156.148 143.721C154.365 143.955 152.569 144.074 150.771 144.076Z" fill="white"/>
</g>
</g>
</g>
<path d="M121.543 147.03C124.755 145.258 128.202 143.948 131.781 143.141C139.906 141.321 143.28 143.382 146.976 140.489C150.803 137.492 148.998 133.866 153.545 130.553C153.927 130.274 158.799 126.824 162.59 128.785C165.243 130.158 165.943 133.446 166.271 134.986C167.546 140.97 165.339 149.588 158.69 153.165C152.38 156.556 145.261 153.715 143.001 152.797C139.038 151.185 138.26 149.471 134.216 147.957C129.297 146.118 124.633 146.477 121.543 147.03Z" fill="url(#paint8_linear)"/>
<g style="mix-blend-mode:soft-light">
<g style="mix-blend-mode:soft-light">
<g style="mix-blend-mode:soft-light">
<path d="M119.758 148.138L119.682 148.002C124.96 145.041 129.897 143.941 134.358 144.735C136.308 145.082 137.632 145.686 138.913 146.269C140.513 146.998 142.024 147.686 144.643 147.893C149.355 148.264 153.55 147.156 156.453 144.775C160.948 141.085 162.676 134.193 160.858 127.215L161.008 127.176C162.842 134.211 161.092 141.167 156.551 144.894C153.618 147.302 149.381 148.421 144.63 148.049C141.983 147.84 140.461 147.147 138.848 146.412C137.576 145.833 136.26 145.233 134.331 144.889C129.908 144.101 125.003 145.194 119.758 148.138Z" fill="white"/>
</g>
<g style="mix-blend-mode:soft-light">
<path d="M158.688 142.414L158.711 142.297C160.211 134.717 151.445 129.355 151.356 129.301L151.436 129.169C151.526 129.222 160.293 134.586 158.885 142.208C159.874 141.954 166.84 139.978 167.937 134.575L168.089 134.606C166.894 140.493 158.885 142.37 158.804 142.388L158.688 142.414Z" fill="white"/>
</g>
<g style="mix-blend-mode:soft-light">
<path d="M158.263 151.456C156.517 151.465 154.781 151.202 153.116 150.677C149.975 149.674 148.263 148.031 148.246 148.015L148.191 147.961L148.243 147.906C153.466 142.276 148.96 134.235 148.916 134.154L149.05 134.076C149.097 134.157 153.627 142.243 148.41 147.954C148.726 148.241 150.374 149.638 153.172 150.535C156.04 151.452 160.744 152.008 166.844 149.451L166.905 149.594C163.593 150.979 160.69 151.456 158.263 151.456Z" fill="white"/>
</g>
</g>
</g>
<path d="M152.53 156.114L70.8003 184.305L21.0512 175.608C20.3005 175.477 19.6202 175.085 19.13 174.501C18.6398 173.918 18.371 173.181 18.3711 172.419V156.472C18.3711 155.687 18.6767 154.932 19.2234 154.368C19.77 153.803 20.5148 153.474 21.3 153.449L110.24 150.642L152.53 156.114Z" fill="#BFC8D6"/>
<path d="M21.4219 155.039L68.9606 163.462V182.56L21.4219 174.309V155.039Z" fill="#D8DEE8"/>
<path d="M67.7012 181.632V163.747C67.7012 162.143 69.0907 160.765 70.8014 160.669L151.936 156.08C153.441 155.995 154.653 157.14 154.653 158.638V175.344C154.653 176.842 153.438 178.146 151.936 178.258L70.8007 184.305C69.0914 184.431 67.7012 183.238 67.7012 181.632Z" fill="white"/>
<path d="M76.0895 165.959C76.0895 167.034 75.1638 167.958 74.021 168.029C72.8781 168.1 71.9453 167.286 71.9453 166.21C71.9453 165.134 72.8774 164.207 74.021 164.139C75.1646 164.071 76.0895 164.887 76.0895 165.959Z" fill="#BFC8D6"/>
<path d="M82.6062 165.564C82.6062 166.631 81.6899 167.554 80.5578 167.624C79.4257 167.694 78.5029 166.884 78.5029 165.814C78.5029 164.743 79.4235 163.82 80.5578 163.754C81.6921 163.687 82.6062 164.497 82.6062 165.564Z" fill="#BFC8D6"/>
<path d="M89.0585 165.17C89.0585 166.232 88.1515 167.149 87.0302 167.219C85.9088 167.289 84.9961 166.482 84.9961 165.417C84.9961 164.352 85.9074 163.435 87.0302 163.368C88.153 163.301 89.0585 164.11 89.0585 165.17Z" fill="#BFC8D6"/>
<path d="M150.329 174.807L93.0957 178.904V163.01L150.329 159.615V174.807Z" fill="url(#paint9_linear)"/>
<g style="mix-blend-mode:soft-light" opacity="0.3">
<g style="mix-blend-mode:soft-light" opacity="0.3">
<path d="M98.7645 177.381L97.0107 177.505V164.688L98.7645 164.582V177.381Z" fill="white"/>
</g>
<g style="mix-blend-mode:soft-light" opacity="0.3">
<path d="M101.87 177.162L100.125 177.285V164.499L101.87 164.393V177.162Z" fill="white"/>
</g>
<g style="mix-blend-mode:soft-light" opacity="0.3">
<path d="M104.962 176.943L103.225 177.066V164.31L104.962 164.205V176.943Z" fill="white"/>
</g>
<g style="mix-blend-mode:soft-light" opacity="0.3">
<path d="M108.038 176.725L106.31 176.848V164.123L108.038 164.018V176.725Z" fill="white"/>
</g>
<g style="mix-blend-mode:soft-light" opacity="0.3">
<path d="M111.101 176.509L109.381 176.631V163.937L111.101 163.832V176.509Z" fill="white"/>
</g>
<g style="mix-blend-mode:soft-light" opacity="0.3">
<path d="M114.148 176.294L112.436 176.415V163.751L114.148 163.646V176.294Z" fill="white"/>
</g>
<g style="mix-blend-mode:soft-light" opacity="0.3">
<path d="M117.18 176.079L115.476 176.2V163.566L117.18 163.462V176.079Z" fill="white"/>
</g>
<g style="mix-blend-mode:soft-light" opacity="0.3">
<path d="M120.199 175.866L118.502 175.985V163.382L120.199 163.278V175.866Z" fill="white"/>
</g>
<g style="mix-blend-mode:soft-light" opacity="0.3">
<path d="M123.202 175.653L121.515 175.772V163.199L123.202 163.096V175.653Z" fill="white"/>
</g>
<g style="mix-blend-mode:soft-light" opacity="0.3">
<path d="M126.192 175.442L124.512 175.56V163.017L126.192 162.914V175.442Z" fill="white"/>
</g>
<g style="mix-blend-mode:soft-light" opacity="0.3">
<path d="M129.168 175.231L127.496 175.35V162.835L129.168 162.734V175.231Z" fill="white"/>
</g>
<g style="mix-blend-mode:soft-light" opacity="0.3">
<path d="M132.13 175.022L130.466 175.139V162.655L132.13 162.554V175.022Z" fill="white"/>
</g>
<g style="mix-blend-mode:soft-light" opacity="0.3">
<path d="M135.077 174.813L133.421 174.931V162.475L135.077 162.374V174.813Z" fill="white"/>
</g>
<g style="mix-blend-mode:soft-light" opacity="0.3">
<path d="M138.011 174.606L136.362 174.723V162.296L138.011 162.196V174.606Z" fill="white"/>
</g>
<g style="mix-blend-mode:soft-light" opacity="0.3">
<path d="M140.931 174.4L139.291 174.516V162.118L140.931 162.019V174.4Z" fill="white"/>
</g>
<g style="mix-blend-mode:soft-light" opacity="0.3">
<path d="M143.838 174.194L142.205 174.309V161.941L143.838 161.842V174.194Z" fill="white"/>
</g>
<g style="mix-blend-mode:soft-light" opacity="0.3">
<path d="M146.733 173.989L145.106 174.104V161.765L146.733 161.666V173.989Z" fill="white"/>
</g>
</g>
<g opacity="0.69">
<path opacity="0.69" d="M98.7645 177.381L97.0107 177.505V166.599L98.7645 166.49V177.381Z" fill="url(#paint10_linear)"/>
<path opacity="0.69" d="M101.87 177.162L100.125 177.285V175.975L101.87 175.854V177.162Z" fill="url(#paint11_linear)"/>
<path opacity="0.69" d="M104.962 176.943L103.225 177.066V169.637L104.962 169.524V176.943Z" fill="url(#paint12_linear)"/>
<path opacity="0.69" d="M108.038 176.725L106.31 176.848V173.647L108.038 173.529V176.725Z" fill="url(#paint13_linear)"/>
<path opacity="0.69" d="M111.101 176.509L109.381 176.631V168.452L111.101 168.342V176.509Z" fill="url(#paint14_linear)"/>
<path opacity="0.69" d="M114.148 176.294L112.436 176.415V170.789L114.148 170.675V176.294Z" fill="url(#paint15_linear)"/>
<path opacity="0.69" d="M117.18 176.079L115.476 176.2V166.452L117.18 166.345V176.079Z" fill="url(#paint16_linear)"/>
<path opacity="0.69" d="M120.199 175.866L118.502 175.985V165.261L120.199 165.155V175.866Z" fill="url(#paint17_linear)"/>
<path opacity="0.69" d="M123.202 175.653L121.515 175.772V170.423L123.202 170.311V175.653Z" fill="url(#paint18_linear)"/>
<path opacity="0.69" d="M126.192 175.442L124.512 175.56V163.876L126.192 163.772V175.442Z" fill="url(#paint19_linear)"/>
<path opacity="0.69" d="M129.168 175.231L127.496 175.349V165.421L129.168 165.316V175.231Z" fill="url(#paint20_linear)"/>
<path opacity="0.69" d="M132.13 175.022L130.466 175.139V172.484L132.13 172.37V175.022Z" fill="url(#paint21_linear)"/>
<path opacity="0.69" d="M135.077 174.813L133.421 174.931V168.703L135.077 168.594V174.813Z" fill="url(#paint22_linear)"/>
<path opacity="0.69" d="M138.011 174.606L136.362 174.723V165.768L138.011 165.663V174.606Z" fill="url(#paint23_linear)"/>
<path opacity="0.69" d="M140.931 174.399L139.291 174.516V168L140.931 167.893V174.399Z" fill="url(#paint24_linear)"/>
<path opacity="0.69" d="M143.838 174.194L142.205 174.309V164.227L143.838 164.124V174.194Z" fill="url(#paint25_linear)"/>
<path opacity="0.69" d="M146.733 173.989L145.106 174.104V162.923L146.733 162.823V173.989Z" fill="url(#paint26_linear)"/>
</g>
<path d="M20.9049 151.637L69.39 159.615L152.543 133.473C152.591 133.457 152.633 133.426 152.661 133.383C152.688 133.341 152.701 133.29 152.695 133.24C152.69 133.189 152.668 133.142 152.632 133.106C152.596 133.07 152.549 133.048 152.498 133.043C145.318 132.42 105.713 128.985 105.493 128.988L21.5674 131.818C20.7157 131.829 19.9026 132.175 19.3042 132.781C18.7059 133.387 18.3706 134.205 18.3711 135.057V148.654C18.3716 149.371 18.6266 150.064 19.0907 150.61C19.5547 151.157 20.1977 151.52 20.9049 151.637Z" fill="#BFC8D6"/>
<path d="M21.4219 134.147L70.2319 138.628V158.371C70.2319 158.371 21.4219 151.386 21.4219 150.43V134.147Z" fill="#D8DEE8"/>
<path d="M67.7012 157.127V139.242C67.7012 137.638 69.0907 136.286 70.8014 136.221L151.936 133.138C152.288 133.121 152.64 133.176 152.97 133.3C153.3 133.424 153.601 133.613 153.856 133.857C154.11 134.102 154.312 134.395 154.449 134.72C154.586 135.045 154.656 135.394 154.653 135.746V152.452C154.653 153.95 153.438 155.232 151.936 155.316L70.8007 159.857C69.0914 159.952 67.7012 158.731 67.7012 157.127Z" fill="white"/>
<path d="M76.0895 141.611C76.0895 142.686 75.1638 143.593 74.021 143.643C72.8781 143.693 71.9453 142.862 71.9453 141.786C71.9453 140.711 72.8774 139.8 74.021 139.754C75.1646 139.707 76.0895 140.538 76.0895 141.611Z" fill="#BFC8D6"/>
<path d="M82.6062 141.335C82.6062 142.402 81.6899 143.307 80.5578 143.357C79.4257 143.406 78.5029 142.579 78.5029 141.509C78.5029 140.438 79.4235 139.533 80.5578 139.487C81.6921 139.441 82.6062 140.268 82.6062 141.335Z" fill="#BFC8D6"/>
<path d="M89.0585 141.063C89.0585 142.125 88.1515 143.025 87.0302 143.074C85.9088 143.123 84.9961 142.298 84.9961 141.235C84.9961 140.172 85.9074 139.269 87.0302 139.223C88.153 139.177 89.0585 140.004 89.0585 141.063Z" fill="#BFC8D6"/>
<path d="M150.329 151.836L93.0957 154.87V138.976L150.329 136.644V151.836Z" fill="url(#paint27_linear)"/>
<g style="mix-blend-mode:soft-light" opacity="0.3">
<g style="mix-blend-mode:soft-light" opacity="0.3">
<path d="M98.7645 153.453L97.0107 153.545V140.727L98.7645 140.653V153.453Z" fill="white"/>
</g>
<g style="mix-blend-mode:soft-light" opacity="0.3">
<path d="M101.87 153.291L100.125 153.382V140.596L101.87 140.522V153.291Z" fill="white"/>
</g>
<g style="mix-blend-mode:soft-light" opacity="0.3">
<path d="M104.962 153.13L103.225 153.221V140.465L104.962 140.392V153.13Z" fill="white"/>
</g>
<g style="mix-blend-mode:soft-light" opacity="0.3">
<path d="M108.038 152.969L106.31 153.059V140.334L108.038 140.261V152.969Z" fill="white"/>
</g>
<g style="mix-blend-mode:soft-light" opacity="0.3">
<path d="M111.101 152.81L109.381 152.899V140.205L111.101 140.132V152.81Z" fill="white"/>
</g>
<g style="mix-blend-mode:soft-light" opacity="0.3">
<path d="M114.148 152.651L112.436 152.74V140.076L114.148 140.004V152.651Z" fill="white"/>
</g>
<g style="mix-blend-mode:soft-light" opacity="0.3">
<path d="M117.18 152.492L115.476 152.581V139.948L117.18 139.875V152.492Z" fill="white"/>
</g>
<g style="mix-blend-mode:soft-light" opacity="0.3">
<path d="M120.199 152.335L118.502 152.423V139.82L120.199 139.748V152.335Z" fill="white"/>
</g>
<g style="mix-blend-mode:soft-light" opacity="0.3">
<path d="M123.202 152.178L121.515 152.266V139.693L123.202 139.621V152.178Z" fill="white"/>
</g>
<g style="mix-blend-mode:soft-light" opacity="0.3">
<path d="M126.192 152.023L124.512 152.11V139.566L126.192 139.495V152.023Z" fill="white"/>
</g>
<g style="mix-blend-mode:soft-light" opacity="0.3">
<path d="M129.168 151.867L127.496 151.954V139.44L129.168 139.369V151.867Z" fill="white"/>
</g>
<g style="mix-blend-mode:soft-light" opacity="0.3">
<path d="M132.13 151.713L130.466 151.8V139.315L132.13 139.245V151.713Z" fill="white"/>
</g>
<g style="mix-blend-mode:soft-light" opacity="0.3">
<path d="M135.077 151.559L133.421 151.645V139.189L135.077 139.12V151.559Z" fill="white"/>
</g>
<g style="mix-blend-mode:soft-light" opacity="0.3">
<path d="M138.011 151.406L136.362 151.492V139.065L138.011 138.996V151.406Z" fill="white"/>
</g>
<g style="mix-blend-mode:soft-light" opacity="0.3">
<path d="M140.931 151.253L139.291 151.339V138.942L140.931 138.872V151.253Z" fill="white"/>
</g>
<g style="mix-blend-mode:soft-light" opacity="0.3">
<path d="M143.838 151.102L142.205 151.187V138.819L143.838 138.75V151.102Z" fill="white"/>
</g>
<g style="mix-blend-mode:soft-light" opacity="0.3">
<path d="M146.733 150.951L145.106 151.036V138.696L146.733 138.628V150.951Z" fill="white"/>
</g>
</g>
<g opacity="0.69">
<path opacity="0.69" d="M98.7645 153.453L97.0107 153.545V142.638L98.7645 142.561V153.453Z" fill="url(#paint28_linear)"/>
<path opacity="0.69" d="M101.87 153.291L100.125 153.382V152.072L101.87 151.983V153.291Z" fill="url(#paint29_linear)"/>
<path opacity="0.69" d="M104.962 153.13L103.225 153.221V145.791L104.962 145.71V153.13Z" fill="url(#paint30_linear)"/>
<path opacity="0.69" d="M108.038 152.969L106.31 153.059V149.859L108.038 149.773V152.969Z" fill="url(#paint31_linear)"/>
<path opacity="0.69" d="M111.101 152.81L109.381 152.899V144.721L111.101 144.642V152.81Z" fill="url(#paint32_linear)"/>
<path opacity="0.69" d="M114.148 152.651L112.436 152.74V147.114L114.148 147.032V152.651Z" fill="url(#paint33_linear)"/>
<path opacity="0.69" d="M117.18 152.492L115.476 152.581V142.834L117.18 142.758V152.492Z" fill="url(#paint34_linear)"/>
<path opacity="0.69" d="M120.199 152.335L118.502 152.423V141.699L120.199 141.625V152.335Z" fill="url(#paint35_linear)"/>
<path opacity="0.69" d="M123.202 152.178L121.515 152.266V146.917L123.202 146.836V152.178Z" fill="url(#paint36_linear)"/>
<path opacity="0.69" d="M126.192 152.023L124.512 152.11V140.425L126.192 140.353V152.023Z" fill="url(#paint37_linear)"/>
<path opacity="0.69" d="M129.168 151.867L127.496 151.954V142.026L129.168 141.952V151.867Z" fill="url(#paint38_linear)"/>
<path opacity="0.69" d="M132.13 151.713L130.466 151.8V149.144L132.13 149.06V151.713Z" fill="url(#paint39_linear)"/>
<path opacity="0.69" d="M135.077 151.559L133.421 151.645V145.418L135.077 145.34V151.559Z" fill="url(#paint40_linear)"/>
<path opacity="0.69" d="M138.011 151.406L136.362 151.492V142.537L138.011 142.463V151.406Z" fill="url(#paint41_linear)"/>
<path opacity="0.69" d="M140.931 151.253L139.291 151.339V144.824L140.931 144.747V151.253Z" fill="url(#paint42_linear)"/>
<path opacity="0.69" d="M143.838 151.102L142.205 151.187V141.105L143.838 141.033V151.102Z" fill="url(#paint43_linear)"/>
<path opacity="0.69" d="M146.733 150.951L145.106 151.036V139.855L146.733 139.785V150.951Z" fill="url(#paint44_linear)"/>
</g>
<path d="M198.752 112.163V178.771C198.752 179.767 197.902 179.99 196.94 180.038L164.713 182.151L164.236 182.174C163.258 182.219 162.457 181.434 162.457 180.429V113.248C162.457 112.244 163.257 111.398 164.236 111.369L164.881 111.35L197.236 111.889C198.201 111.864 198.752 111.167 198.752 112.163Z" fill="url(#paint45_linear)"/>
<path d="M199.785 112.1V178.757C199.785 179.753 198.996 180.605 198.033 180.649L165.217 182.162C164.237 182.207 163.436 181.422 163.436 180.416V113.189C163.436 112.185 164.237 111.338 165.217 111.308L198.029 110.34C198.996 110.312 199.785 111.104 199.785 112.1Z" fill="url(#paint46_linear)"/>
<path d="M198.692 115.829V177.531C198.692 178.463 197.957 179.256 197.057 179.297L166.202 180.709C165.289 180.751 164.541 180.018 164.541 179.081V116.881C164.541 115.944 165.288 115.154 166.202 115.126L197.06 114.188C197.957 114.16 198.692 114.899 198.692 115.829Z" fill="url(#paint47_linear)"/>
<path d="M182.295 112.825C182.295 112.99 182.232 113.149 182.119 113.269C182.005 113.389 181.85 113.461 181.686 113.471C181.605 113.472 181.525 113.458 181.45 113.428C181.375 113.398 181.307 113.353 181.25 113.296C181.193 113.239 181.148 113.171 181.118 113.096C181.088 113.021 181.074 112.941 181.075 112.86C181.075 112.695 181.138 112.536 181.252 112.416C181.365 112.296 181.521 112.224 181.686 112.215C181.766 112.213 181.846 112.228 181.921 112.258C181.996 112.288 182.063 112.333 182.12 112.39C182.177 112.447 182.222 112.515 182.252 112.59C182.282 112.665 182.297 112.745 182.295 112.825Z" fill="#DE8BDF"/>
<g style="mix-blend-mode:soft-light" opacity="0.48">
<g style="mix-blend-mode:soft-light" opacity="0.48">
<path d="M189.124 150.72C186.132 143.199 178.069 144.975 175.556 137.375C173.506 131.171 178.066 127.535 176.281 120.351C175.277 116.32 172.815 113.324 170.294 111.16L165.298 111.307C164.81 111.324 164.347 111.53 164.006 111.88C163.664 112.23 163.471 112.698 163.466 113.187V180.357C163.466 181.361 164.291 182.097 165.298 181.991L190.431 179.354C188.415 176.175 187.604 173.269 187.318 170.856C186.276 162.074 191.865 157.61 189.124 150.72Z" fill="white"/>
</g>
</g>
<path d="M136.872 8.25564C147.104 8.79194 155.757 17.9521 156.196 28.7126C156.236 29.7143 156.203 30.7177 156.097 31.7146C157.948 30.9951 159.931 30.6812 161.914 30.794C170.359 31.2363 177.497 38.7933 177.859 47.6746C178.203 56.1135 172.307 62.709 164.473 62.9685C164.062 62.98 163.646 62.9786 163.225 62.9563L93.2304 59.0509C89.287 58.0888 86.1804 54.3303 86.004 49.9983C85.8047 45.1178 89.4082 41.3558 94.0492 41.5989C95.0223 41.6509 95.9791 41.8712 96.877 42.2499C96.4668 40.7047 96.2264 39.1194 96.16 37.5221C95.7062 26.3974 103.911 17.8266 114.49 18.3787C116.435 18.485 118.352 18.8859 120.176 19.5675C122.625 12.5504 129.08 7.84696 136.872 8.25564Z" fill="#413974"/>
<path d="M141.309 4.61768C151.542 5.15398 160.195 14.317 160.637 25.0717C160.678 26.0735 160.645 27.0768 160.538 28.0737C162.389 27.3543 164.373 27.0403 166.355 27.1531C174.8 27.5955 181.939 35.1525 182.301 44.0337C182.645 52.4726 176.748 59.0681 168.915 59.3277C168.503 59.3391 168.087 59.3377 167.666 59.3155L97.6718 55.4101C93.7284 54.4479 90.6218 50.6895 90.4454 46.3575C90.2461 41.477 93.8496 37.715 98.4906 37.958C99.4637 38.0101 100.42 38.2304 101.318 38.6091C100.908 37.0639 100.668 35.4786 100.601 33.8813C100.148 22.7566 108.353 14.1858 118.932 14.7379C120.876 14.8442 122.793 15.245 124.617 15.9266C127.063 8.91311 133.519 4.20756 141.309 4.61768Z" fill="url(#paint48_linear)"/>
<path d="M95.8668 130.696C93.7819 130.763 91.7216 130.23 89.9302 129.161C84.512 125.914 76.5055 120.55 69.3027 113.531C60.1626 104.621 54.9115 95.5645 53.7628 86.671L53.7449 86.5319L53.5205 48.58C53.5205 41.0804 58.4125 34.9925 67.5963 30.9925C75.1841 27.6872 85.2412 26.0496 95.8654 26.3572C106.366 26.6612 116.084 28.8279 123.275 32.4379C131.824 36.7298 136.31 42.7625 136.31 49.9115L136.106 86.1713L136.09 86.3047C135.04 94.821 130.21 103.624 121.668 112.526C114.818 119.666 107.078 125.324 101.763 128.83C100.009 129.988 97.9674 130.635 95.8668 130.696Z" fill="url(#paint49_linear)"/>
<path d="M97.9508 130.697C95.8906 130.763 93.8555 130.229 92.0923 129.162C86.7458 125.914 78.8453 120.55 71.7372 113.531C62.719 104.618 57.5359 95.5618 56.4031 86.6676L56.3851 86.5285L56.165 48.5801C56.165 41.0805 60.9918 34.9926 70.0544 30.9925C77.5419 27.6872 87.4663 26.0496 97.9508 26.3572C108.313 26.6612 117.902 28.828 124.998 32.438C133.435 36.7298 137.861 42.7625 137.861 49.9115L137.66 86.1715L137.644 86.3048C136.608 94.8211 131.84 103.624 123.413 112.526C116.654 119.666 109.016 125.324 103.768 128.83C102.043 129.987 100.027 130.634 97.9508 130.697Z" fill="url(#paint50_linear)"/>
<path d="M58.6709 48.6073L58.8925 86.3635C61.3775 105.628 84.0177 121.225 93.8812 127.15C96.7061 128.848 100.318 128.747 103.122 126.902C112.777 120.548 134.177 104.555 136.462 86.0337L136.665 49.8735C136.663 23.0463 58.6709 20.5942 58.6709 48.6073Z" fill="url(#paint51_linear)"/>
<path d="M98.511 121.331C98.254 121.338 98.0005 121.271 97.7804 121.138C93.7202 118.679 85.8499 113.529 79.0034 106.804C71.6078 99.5396 67.3425 92.4766 66.3645 85.8431L66.1494 48.7121C66.1587 45.1494 68.9786 42.1001 74.5072 39.6602C80.679 36.9356 89.4427 35.5074 98.5132 35.7225C107.493 35.9376 116.002 37.7437 121.896 40.6697C127.11 43.2565 129.746 46.3073 129.755 49.7467L129.553 85.5957C128.64 92.0149 124.636 98.9352 117.608 106.21C110.999 113.05 103.279 118.47 99.2438 121.109C99.0251 121.25 98.7713 121.327 98.511 121.331Z" fill="url(#paint52_linear)"/>
<path d="M97.5844 118.793C93.484 116.268 86.193 111.392 79.832 105.131C72.8816 98.2912 68.8622 91.7273 67.9143 85.6544L67.6992 48.7385C67.7057 46.1911 70.0473 43.8545 74.641 41.8204C80.4873 39.2321 88.8631 37.8677 97.5844 38.0634C106.222 38.257 114.362 39.9634 119.958 42.7317C124.305 44.8826 126.504 47.2286 126.51 49.7129L126.309 85.4272C125.422 91.32 121.628 97.7642 114.994 104.617C108.834 110.98 101.665 116.097 97.5844 118.793Z" fill="#F4F7FA"/>
<path d="M112.255 70.4609L84.6446 70.7068C82.5223 70.7255 80.793 72.3803 80.793 74.4014V92.0915C80.793 94.099 82.5137 95.6578 84.6303 95.5717L112.143 94.4453C114.1 94.365 115.687 92.7454 115.697 90.8253L115.785 73.9261C115.795 71.9952 114.218 70.443 112.255 70.4609Z" fill="url(#paint53_linear)"/>
<path d="M102.228 80.6047C102.234 78.651 100.557 77.1066 98.5093 77.2349C96.6967 77.3497 95.1925 78.8123 95.0907 80.5703C95.0531 81.21 95.2012 81.8468 95.517 82.4043C95.8328 82.9618 96.303 83.4162 96.871 83.7128C97.1003 83.8382 97.2838 84.0332 97.395 84.2697C97.5062 84.5062 97.5394 84.7719 97.4897 85.0285L96.6917 89.4974C96.5899 90.066 97.0409 90.5664 97.6353 90.5456L99.655 90.4739C100.246 90.4531 100.695 89.924 100.597 89.3648L99.8257 84.9396C99.7332 84.4112 100.006 83.8871 100.485 83.5988C101.526 82.9751 102.224 81.8609 102.228 80.6047Z" fill="url(#paint54_linear)"/>
<path d="M111.867 68.7058C111.671 68.7089 111.478 68.6732 111.296 68.6007C111.115 68.5281 110.95 68.4203 110.811 68.2834C110.671 68.1465 110.561 67.9832 110.485 67.8032C110.41 67.6231 110.371 67.4298 110.37 67.2345L110.387 63.3807C110.404 59.509 107.204 56.3263 103.217 56.2869L94.2054 56.1973C90.0785 56.1564 86.685 59.3742 86.6814 63.3671V67.3421C86.6814 68.1859 85.9644 68.875 85.0747 68.8807C84.1849 68.8864 83.4629 68.2046 83.4629 67.3564V63.365C83.4629 57.6585 88.3247 53.0763 94.2133 53.158L103.229 53.2835C108.893 53.3623 113.418 57.8951 113.391 63.3814L113.372 67.2195C113.367 67.6154 113.206 67.9934 112.925 68.2716C112.643 68.5498 112.263 68.7058 111.867 68.7058Z" fill="url(#paint55_linear)"/>
<path d="M56.058 101.706C56.058 101.706 56.6316 100.89 56.9327 100.316C57.2338 99.7417 56.5025 98.15 56.1756 96.8222C55.8486 95.4943 55.6845 97.5657 55.6436 98.0346C55.6027 98.5035 55.5977 99.3703 55.1123 100.858L56.058 101.706Z" fill="url(#paint56_linear)"/>
<path d="M52.3773 181.546L52.1543 185.106C52.1543 185.106 52.6598 185.642 53.6327 185.269L54.6953 181.772L52.3773 181.546Z" fill="url(#paint57_linear)"/>
<path d="M52.8229 184.163C52.8229 184.163 51.0792 184.875 51.4176 185.646C51.599 186.06 52.2285 186.995 52.772 187.773C53.0169 188.125 53.3664 188.39 53.7708 188.532C54.1752 188.674 54.614 188.684 55.0247 188.562C55.3072 188.477 55.5983 188.395 55.8514 188.329C55.9662 188.299 56.0683 188.234 56.1428 188.141C56.2174 188.049 56.2603 187.935 56.2653 187.817C56.2702 187.699 56.237 187.582 56.1705 187.484C56.104 187.385 56.0077 187.311 55.8959 187.272C55.6647 187.187 55.4265 187.123 55.1839 187.08C54.5458 186.982 53.6668 185.473 53.5642 184.869C53.4617 184.264 52.8229 184.163 52.8229 184.163Z" fill="url(#paint58_linear)"/>
<path d="M48.6313 147.37C51.2003 148.256 60.6989 151.847 62.8147 160.083C62.928 160.522 63.2176 161.745 63.2305 163.739C63.285 172.052 58.4511 179.087 54.9358 183.18L51.6111 183.124C51.0576 181.002 50.55 177.829 51.3451 174.258C52.564 168.801 55.7187 167.386 55.1071 164.707C54.0022 159.843 42.7083 160.579 41.6443 156.224C41.26 154.654 42.1032 151.984 48.6313 147.37Z" fill="url(#paint59_linear)"/>
<path d="M16.8606 197.136L21.6837 197.024C21.7491 197.022 21.8125 197.001 21.8654 196.962C21.9183 196.924 21.9581 196.87 21.9795 196.808C22.001 196.746 22.003 196.679 21.9854 196.616C21.9678 196.553 21.9313 196.497 21.8809 196.455C21.7548 196.343 21.6069 196.259 21.4465 196.207C21.286 196.155 21.1166 196.136 20.9488 196.153C20.0318 196.249 17.9741 194.965 17.0398 195.241C16.7351 195.33 16.487 196.048 16.3601 196.244C16.3026 196.333 16.2704 196.435 16.2669 196.54C16.2634 196.646 16.2889 196.75 16.3404 196.842C16.392 196.934 16.4677 197.01 16.5594 197.062C16.6511 197.114 16.7553 197.139 16.8606 197.136Z" fill="url(#paint60_linear)"/>
<path d="M19.028 193.431L17.042 195.242C17.2917 195.403 17.5713 195.513 17.8643 195.563C18.1573 195.614 18.4575 195.606 18.747 195.538L20.7767 194.14L19.028 193.431Z" fill="url(#paint61_linear)"/>
<g style="mix-blend-mode:color-burn" opacity="0.3">
<path style="mix-blend-mode:color-burn" opacity="0.3" d="M57.1518 168.818C58.484 165.221 60.0814 160.788 58.2567 158.269C56.4105 155.721 52.3653 157.872 48.3072 155.818C46.8016 155.057 45.255 153.694 43.9681 151.23C41.6902 153.581 41.3805 155.16 41.6422 156.23C42.7062 160.586 54.0007 159.85 55.1049 164.714C55.7129 167.392 52.5589 168.808 51.3429 174.265C50.6589 177.334 50.9392 180.108 51.3823 182.174C51.8008 180.117 52.4547 178.114 53.3311 176.206C54.788 173.049 55.7487 172.606 57.1518 168.818Z" fill="url(#paint62_linear)"/>
</g>
<path d="M50.1024 146.332C47.8104 156.887 43.5614 166.92 37.5753 175.91C32.9292 182.868 27.2943 189.112 20.8482 194.446C19.8836 194.736 18.8453 194.657 17.9365 194.222C18.404 191.349 19.322 188.567 20.6567 185.98C23.7261 180.072 26.4593 180.262 29.5423 175.048C31.8 171.23 32.5335 167.174 34.0019 159.059C35.1354 152.795 35.1362 151.298 36.6884 149.502C39.8259 145.874 45.7195 145.833 50.1024 146.332Z" fill="url(#paint63_linear)"/>
<g style="mix-blend-mode:multiply" opacity="0.3">
<path style="mix-blend-mode:multiply" opacity="0.3" d="M21.8333 187.317C22.9289 185.588 24.8726 183.788 28.7063 180.236C32.6684 176.566 32.5164 177.229 33.295 176.144C36.7867 171.288 34.896 166.099 35.7593 159.837C36.2411 156.343 37.7833 151.777 42.2752 146.664C40.1702 147.052 38.1547 147.887 36.6878 149.505C34.886 151.493 35.0186 153.439 34.0012 159.062C32.5329 167.174 31.7994 171.23 29.5416 175.051C26.4586 180.265 23.7254 180.075 20.656 185.983C19.3218 188.569 18.404 191.35 17.9365 194.222C18.672 194.574 19.4971 194.695 20.3026 194.568C20.0509 190.462 21.2777 188.194 21.8333 187.317Z" fill="url(#paint64_linear)"/>
</g>
<path d="M54.3246 99.6887C54.3246 99.6887 55.6087 109.252 45.5322 115.994L56.2547 118.552C56.2547 118.552 59.6869 112.135 57.2018 101.505L54.3246 99.6887Z" fill="#F4F7FA"/>
<path d="M44.2135 108.786C44.7398 107.749 44.957 107.755 45.0868 107.208C45.3815 105.961 44.6208 104.376 43.9755 104.355C43.5596 104.34 43.5252 104.987 42.6448 105.995C41.5693 107.23 40.9111 107.071 40.2787 108.14C40.1303 108.391 39.4621 109.519 39.8729 110.362C40.3977 111.438 42.4655 111.608 43.3302 110.778C43.7367 110.382 43.5647 110.063 44.2135 108.786Z" fill="url(#paint65_linear)"/>
<path d="M42.6627 109.905C42.6627 109.905 43.0319 111.876 42.7695 113.479C42.5314 114.927 39.8485 116.432 39.3344 116.864C38.8204 117.296 40.6967 117.764 42.4218 117.538C44.1468 117.312 48.8624 115.803 49.5794 114.962C50.2964 114.121 48.7448 114.532 47.4399 114.376C46.135 114.22 44.8889 112.029 44.8509 110.914C44.8129 109.798 42.6627 109.905 42.6627 109.905Z" fill="url(#paint66_linear)"/>
<path d="M43.2249 111.375C43.2249 111.375 44.5441 111.955 45.7121 111.017C46.7582 110.18 45.2031 107.611 44.1383 107.575C43.7798 107.565 43.265 107.818 42.9589 108.191C42.7782 108.411 42.7674 108.557 42.4649 108.908C42.186 109.234 42.0634 109.266 42.0211 109.421C41.968 109.619 42.0591 109.949 42.7753 110.519C42.4168 110.453 42.1107 110.547 41.9917 110.755C41.9539 110.831 41.9378 110.915 41.9451 110.999C41.9888 111.396 42.4957 111.575 43.2249 111.375Z" fill="url(#paint67_linear)"/>
<path d="M72.2139 104.52C72.2139 104.52 73.0126 104.409 72.7638 102.883C72.5688 101.687 72.7165 101.285 72.999 101.497C73.2815 101.709 73.3209 102.4 73.3209 102.4C73.3209 102.4 74.3505 101.522 74.775 100.371C75.1994 99.2205 75.4719 100.19 75.5637 100.765C75.6554 101.34 74.9578 103.127 74.5642 103.46C74.1705 103.793 73.5948 105.261 73.5948 105.261L72.2139 104.52Z" fill="url(#paint68_linear)"/>
<path d="M74.3417 104.928L71.6172 103.019C70.5116 109.816 67.9979 112.483 65.8634 113.65C60.7134 116.465 56.1175 111.449 46.2597 113.496C43.5431 114.061 38.8089 115.111 36.1833 118.981C35.4929 119.999 35.2512 120.769 34.1041 128.065C32.6393 137.393 32.5869 139.021 32.7934 141.029C33.1713 144.704 33.4007 146.932 35.0949 148.903C39.5947 154.137 49.1599 151.439 50.3587 151.083C52.5742 150.427 56.0171 149.407 57.3851 146.48C58.0304 145.102 57.9587 143.843 56.9714 138.808C55.0119 128.83 54.7617 128.184 55.3087 127.092C57.155 123.404 63.0034 125.514 67.9441 122.085C70.8299 120.08 74.0858 115.711 74.3417 104.928Z" fill="white"/>
<path d="M45.8739 149.755C46.8382 147.777 45.5419 145.955 46.9644 143.576C48.7762 140.546 52.037 141.575 53.2638 139.336C55.3617 135.508 47.1035 130.167 48.7812 124.072C49.5828 121.162 52.3798 119.054 54.7171 118.258C59.9059 116.486 63.2993 121.002 68.164 119.591C69.3169 119.256 70.6405 118.562 71.9784 117.123C70.7953 119.619 69.3255 121.127 67.9403 122.089C62.9996 125.517 57.1505 123.408 55.305 127.095C54.758 128.188 55.0082 128.834 56.9677 138.811C57.9571 143.848 58.0252 145.107 57.3814 146.483C56.0134 149.411 52.5705 150.43 50.355 151.087C49.6983 151.281 46.5349 152.175 43.0684 152.091C44.6163 151.457 45.4487 150.624 45.8739 149.755Z" fill="#F4F7FA"/>
<defs>
<linearGradient id="paint0_linear" x1="124.217" y1="137.01" x2="124.711" y2="155.539" gradientUnits="userSpaceOnUse">
<stop stop-color="#444B8C"/>
<stop offset="1" stop-color="#26264F"/>
</linearGradient>
<linearGradient id="paint1_linear" x1="331437" y1="196671" x2="282666" y2="-72913" gradientUnits="userSpaceOnUse">
<stop stop-color="#444B8C"/>
<stop offset="1" stop-color="#26264F"/>
</linearGradient>
<linearGradient id="paint2_linear" x1="159.653" y1="22.4705" x2="66.5727" y2="130.189" gradientUnits="userSpaceOnUse">
<stop stop-color="#E38DDD"/>
<stop offset="1" stop-color="#9571F6"/>
</linearGradient>
<linearGradient id="paint3_linear" x1="147500" y1="58010.9" x2="470023" y2="58010.9" gradientUnits="userSpaceOnUse">
<stop stop-color="#444B8C"/>
<stop offset="1" stop-color="#26264F"/>
</linearGradient>
<linearGradient id="paint4_linear" x1="49.5206" y1="62.3519" x2="28.0283" y2="119.908" gradientUnits="userSpaceOnUse">
<stop stop-color="#FFC444"/>
<stop offset="1" stop-color="#F36F56"/>
</linearGradient>
<linearGradient id="paint5_linear" x1="273446" y1="17197.5" x2="338958" y2="94426.4" gradientUnits="userSpaceOnUse">
<stop stop-color="#FF9085"/>
<stop offset="1" stop-color="#FB6FBB"/>
</linearGradient>
<linearGradient id="paint6_linear" x1="145.665" y1="102.882" x2="123.719" y2="132.9" gradientUnits="userSpaceOnUse">
<stop stop-color="#6165D7"/>
<stop offset="1" stop-color="#AA80F9"/>
</linearGradient>
<linearGradient id="paint7_linear" x1="154.465" y1="106.643" x2="136.943" y2="158.922" gradientUnits="userSpaceOnUse">
<stop stop-color="#FF9085"/>
<stop offset="1" stop-color="#FB6FBB"/>
</linearGradient>
<linearGradient id="paint8_linear" x1="93179.3" y1="69851.5" x2="164050" y2="22440.8" gradientUnits="userSpaceOnUse">
<stop stop-color="#FFC444"/>
<stop offset="1" stop-color="#F36F56"/>
</linearGradient>
<linearGradient id="paint9_linear" x1="105854" y1="51707.8" x2="115664" y2="68021.9" gradientUnits="userSpaceOnUse">
<stop stop-color="#444B8C"/>
<stop offset="1" stop-color="#26264F"/>
</linearGradient>
<linearGradient id="paint10_linear" x1="3168.53" y1="30772.2" x2="3950.41" y2="32670.8" gradientUnits="userSpaceOnUse">
<stop stop-color="#FF9085"/>
<stop offset="1" stop-color="#FB6FBB"/>
</linearGradient>
<linearGradient id="paint11_linear" x1="3238.97" y1="4329.03" x2="3240.84" y2="4363.78" gradientUnits="userSpaceOnUse">
<stop stop-color="#FF9085"/>
<stop offset="1" stop-color="#FB6FBB"/>
</linearGradient>
<linearGradient id="paint12_linear" x1="3298.27" y1="21397.5" x2="3571.1" y2="22355.5" gradientUnits="userSpaceOnUse">
<stop stop-color="#FF9085"/>
<stop offset="1" stop-color="#FB6FBB"/>
</linearGradient>
<linearGradient id="paint13_linear" x1="3363.12" y1="9692.35" x2="3387.5" y2="9885.94" gradientUnits="userSpaceOnUse">
<stop stop-color="#FF9085"/>
<stop offset="1" stop-color="#FB6FBB"/>
</linearGradient>
<linearGradient id="paint14_linear" x1="3419.12" y1="23336.5" x2="3779.15" y2="24475.8" gradientUnits="userSpaceOnUse">
<stop stop-color="#FF9085"/>
<stop offset="1" stop-color="#FB6FBB"/>
</linearGradient>
<linearGradient id="paint15_linear" x1="3481.95" y1="16394.8" x2="3607.3" y2="16964.3" gradientUnits="userSpaceOnUse">
<stop stop-color="#FF9085"/>
<stop offset="1" stop-color="#FB6FBB"/>
</linearGradient>
<linearGradient id="paint16_linear" x1="3538.11" y1="27396.1" x2="4126.97" y2="28948.3" gradientUnits="userSpaceOnUse">
<stop stop-color="#FF9085"/>
<stop offset="1" stop-color="#FB6FBB"/>
</linearGradient>
<linearGradient id="paint17_linear" x1="3596.26" y1="29880.5" x2="4360.77" y2="31707.4" gradientUnits="userSpaceOnUse">
<stop stop-color="#FF9085"/>
<stop offset="1" stop-color="#FB6FBB"/>
</linearGradient>
<linearGradient id="paint18_linear" x1="3656.31" y1="15562.1" x2="3765.88" y2="16079.1" gradientUnits="userSpaceOnUse">
<stop stop-color="#FF9085"/>
<stop offset="1" stop-color="#FB6FBB"/>
</linearGradient>
<linearGradient id="paint19_linear" x1="3708.75" y1="32214.7" x2="4675.64" y2="34315.7" gradientUnits="userSpaceOnUse">
<stop stop-color="#FF9085"/>
<stop offset="1" stop-color="#FB6FBB"/>
</linearGradient>
<linearGradient id="paint20_linear" x1="3764.22" y1="27659.7" x2="4391.53" y2="29254.2" gradientUnits="userSpaceOnUse">
<stop stop-color="#FF9085"/>
<stop offset="1" stop-color="#FB6FBB"/>
</linearGradient>
<linearGradient id="paint21_linear" x1="3825.3" y1="8058.48" x2="3839.99" y2="8193.09" gradientUnits="userSpaceOnUse">
<stop stop-color="#FF9085"/>
<stop offset="1" stop-color="#FB6FBB"/>
</linearGradient>
<linearGradient id="paint22_linear" x1="3875.55" y1="17835.7" x2="4047.8" y2="18522" gradientUnits="userSpaceOnUse">
<stop stop-color="#FF9085"/>
<stop offset="1" stop-color="#FB6FBB"/>
</linearGradient>
<linearGradient id="paint23_linear" x1="3925.41" y1="24995.9" x2="4403.83" y2="26322.9" gradientUnits="userSpaceOnUse">
<stop stop-color="#FF9085"/>
<stop offset="1" stop-color="#FB6FBB"/>
</linearGradient>
<linearGradient id="paint24_linear" x1="3979.34" y1="18546.6" x2="4176.58" y2="19292" gradientUnits="userSpaceOnUse">
<stop stop-color="#FF9085"/>
<stop offset="1" stop-color="#FB6FBB"/>
</linearGradient>
<linearGradient id="paint25_linear" x1="4028.07" y1="27793.9" x2="4692.68" y2="29420.3" gradientUnits="userSpaceOnUse">
<stop stop-color="#FF9085"/>
<stop offset="1" stop-color="#FB6FBB"/>
</linearGradient>
<linearGradient id="paint26_linear" x1="4078.23" y1="30506.4" x2="4956.8" y2="32438.2" gradientUnits="userSpaceOnUse">
<stop stop-color="#FF9085"/>
<stop offset="1" stop-color="#FB6FBB"/>
</linearGradient>
<linearGradient id="paint27_linear" x1="105727" y1="42848.1" x2="114827" y2="58862.9" gradientUnits="userSpaceOnUse">
<stop stop-color="#444B8C"/>
<stop offset="1" stop-color="#26264F"/>
</linearGradient>
<linearGradient id="paint28_linear" x1="3168.51" y1="26988.1" x2="3948.23" y2="28886.9" gradientUnits="userSpaceOnUse">
<stop stop-color="#FF9085"/>
<stop offset="1" stop-color="#FB6FBB"/>
</linearGradient>
<linearGradient id="paint29_linear" x1="3238.95" y1="3743.31" x2="3240.76" y2="3777.69" gradientUnits="userSpaceOnUse">
<stop stop-color="#FF9085"/>
<stop offset="1" stop-color="#FB6FBB"/>
</linearGradient>
<linearGradient id="paint30_linear" x1="3298.25" y1="18787.2" x2="3569.61" y2="19744.9" gradientUnits="userSpaceOnUse">
<stop stop-color="#FF9085"/>
<stop offset="1" stop-color="#FB6FBB"/>
</linearGradient>
<linearGradient id="paint31_linear" x1="3363.1" y1="8485.9" x2="3387.14" y2="8678.74" gradientUnits="userSpaceOnUse">
<stop stop-color="#FF9085"/>
<stop offset="1" stop-color="#FB6FBB"/>
</linearGradient>
<linearGradient id="paint32_linear" x1="3419.08" y1="20491.5" x2="3777.7" y2="21630.4" gradientUnits="userSpaceOnUse">
<stop stop-color="#FF9085"/>
<stop offset="1" stop-color="#FB6FBB"/>
</linearGradient>
<linearGradient id="paint33_linear" x1="3481.93" y1="14395.2" x2="3606.31" y2="14964" gradientUnits="userSpaceOnUse">
<stop stop-color="#FF9085"/>
<stop offset="1" stop-color="#FB6FBB"/>
</linearGradient>
<linearGradient id="paint34_linear" x1="3538.09" y1="24049.4" x2="4124.73" y2="25601.6" gradientUnits="userSpaceOnUse">
<stop stop-color="#FF9085"/>
<stop offset="1" stop-color="#FB6FBB"/>
</linearGradient>
<linearGradient id="paint35_linear" x1="3596.23" y1="26221.5" x2="4358.68" y2="28048.5" gradientUnits="userSpaceOnUse">
<stop stop-color="#FF9085"/>
<stop offset="1" stop-color="#FB6FBB"/>
</linearGradient>
<linearGradient id="paint36_linear" x1="3656.27" y1="13669.4" x2="3765.3" y2="14185.7" gradientUnits="userSpaceOnUse">
<stop stop-color="#FF9085"/>
<stop offset="1" stop-color="#FB6FBB"/>
</linearGradient>
<linearGradient id="paint37_linear" x1="3708.73" y1="28261.7" x2="4672.99" y2="30363.7" gradientUnits="userSpaceOnUse">
<stop stop-color="#FF9085"/>
<stop offset="1" stop-color="#FB6FBB"/>
</linearGradient>
<linearGradient id="paint38_linear" x1="3764.19" y1="24287.8" x2="4389.69" y2="25882.2" gradientUnits="userSpaceOnUse">
<stop stop-color="#FF9085"/>
<stop offset="1" stop-color="#FB6FBB"/>
</linearGradient>
<linearGradient id="paint39_linear" x1="3825.29" y1="7057.7" x2="3839.75" y2="7191.75" gradientUnits="userSpaceOnUse">
<stop stop-color="#FF9085"/>
<stop offset="1" stop-color="#FB6FBB"/>
</linearGradient>
<linearGradient id="paint40_linear" x1="3875.52" y1="15678.4" x2="4046.86" y2="16364.1" gradientUnits="userSpaceOnUse">
<stop stop-color="#FF9085"/>
<stop offset="1" stop-color="#FB6FBB"/>
</linearGradient>
<linearGradient id="paint41_linear" x1="3925.4" y1="21962.3" x2="4401.88" y2="23289.3" gradientUnits="userSpaceOnUse">
<stop stop-color="#FF9085"/>
<stop offset="1" stop-color="#FB6FBB"/>
</linearGradient>
<linearGradient id="paint42_linear" x1="3979.31" y1="16306.7" x2="4175.57" y2="17051.6" gradientUnits="userSpaceOnUse">
<stop stop-color="#FF9085"/>
<stop offset="1" stop-color="#FB6FBB"/>
</linearGradient>
<linearGradient id="paint43_linear" x1="4028.04" y1="24413.7" x2="4690.85" y2="26040.1" gradientUnits="userSpaceOnUse">
<stop stop-color="#FF9085"/>
<stop offset="1" stop-color="#FB6FBB"/>
</linearGradient>
<linearGradient id="paint44_linear" x1="4078.2" y1="26781.9" x2="4954.75" y2="28713.9" gradientUnits="userSpaceOnUse">
<stop stop-color="#FF9085"/>
<stop offset="1" stop-color="#FB6FBB"/>
</linearGradient>
<linearGradient id="paint45_linear" x1="118936" y1="198387" x2="96228.1" y2="188461" gradientUnits="userSpaceOnUse">
<stop stop-color="#444B8C"/>
<stop offset="1" stop-color="#26264F"/>
</linearGradient>
<linearGradient id="paint46_linear" x1="308544" y1="43674.4" x2="309672" y2="-16222" gradientUnits="userSpaceOnUse">
<stop stop-color="#444B8C"/>
<stop offset="1" stop-color="#26264F"/>
</linearGradient>
<linearGradient id="paint47_linear" x1="104926" y1="153514" x2="69239.2" y2="178147" gradientUnits="userSpaceOnUse">
<stop stop-color="#E38DDD"/>
<stop offset="1" stop-color="#9571F6"/>
</linearGradient>
<linearGradient id="paint48_linear" x1="151859" y1="48842" x2="269596" y2="48842" gradientUnits="userSpaceOnUse">
<stop stop-color="#E38DDD"/>
<stop offset="1" stop-color="#9571F6"/>
</linearGradient>
<linearGradient id="paint49_linear" x1="198059" y1="80759.1" x2="164534" y2="106316" gradientUnits="userSpaceOnUse">
<stop stop-color="#FFC444"/>
<stop offset="1" stop-color="#F36F56"/>
</linearGradient>
<linearGradient id="paint50_linear" x1="114635" y1="88367.6" x2="243360" y2="253147" gradientUnits="userSpaceOnUse">
<stop stop-color="#FFC444"/>
<stop offset="1" stop-color="#F36F56"/>
</linearGradient>
<linearGradient id="paint51_linear" x1="156234" y1="189453" x2="52206.6" y2="25826.6" gradientUnits="userSpaceOnUse">
<stop stop-color="#FFC444"/>
<stop offset="1" stop-color="#F36F56"/>
</linearGradient>
<linearGradient id="paint52_linear" x1="66.1473" y1="78.517" x2="129.753" y2="78.517" gradientUnits="userSpaceOnUse">
<stop stop-color="#311944"/>
<stop offset="1" stop-color="#893976"/>
</linearGradient>
<linearGradient id="paint53_linear" x1="71436.8" y1="27287.1" x2="64049.2" y2="46314" gradientUnits="userSpaceOnUse">
<stop stop-color="#E38DDD"/>
<stop offset="1" stop-color="#9571F6"/>
</linearGradient>
<linearGradient id="paint54_linear" x1="12357" y1="21604.9" x2="13068.5" y2="21604.9" gradientUnits="userSpaceOnUse">
<stop stop-color="#311944"/>
<stop offset="1" stop-color="#893976"/>
</linearGradient>
<linearGradient id="paint55_linear" x1="57959" y1="16196.5" x2="54353.9" y2="28880.3" gradientUnits="userSpaceOnUse">
<stop stop-color="#E38DDD"/>
<stop offset="1" stop-color="#9571F6"/>
</linearGradient>
<linearGradient id="paint56_linear" x1="83.5671" y1="47.0197" x2="75.6707" y2="61.9852" gradientUnits="userSpaceOnUse">
<stop stop-color="#F36F56"/>
<stop offset="1" stop-color="#FFC444"/>
</linearGradient>
<linearGradient id="paint57_linear" x1="3628.87" y1="12194.7" x2="3735.93" y2="12176.5" gradientUnits="userSpaceOnUse">
<stop stop-color="#F36F56"/>
<stop offset="1" stop-color="#FFC444"/>
</linearGradient>
<linearGradient id="paint58_linear" x1="5577.52" y1="13123.2" x2="5417.45" y2="14960.2" gradientUnits="userSpaceOnUse">
<stop stop-color="#E38DDD"/>
<stop offset="1" stop-color="#9571F6"/>
</linearGradient>
<linearGradient id="paint59_linear" x1="61.5535" y1="157.17" x2="35.5708" y2="178.513" gradientUnits="userSpaceOnUse">
<stop stop-color="#AB316D"/>
<stop offset="1" stop-color="#792D3D"/>
</linearGradient>
<linearGradient id="paint60_linear" x1="5506.01" y1="5808.88" x2="5369.29" y2="6520.39" gradientUnits="userSpaceOnUse">
<stop stop-color="#E38DDD"/>
<stop offset="1" stop-color="#9571F6"/>
</linearGradient>
<linearGradient id="paint61_linear" x1="2716.32" y1="7019.66" x2="2903.8" y2="7037.31" gradientUnits="userSpaceOnUse">
<stop stop-color="#F36F56"/>
<stop offset="1" stop-color="#FFC444"/>
</linearGradient>
<linearGradient id="paint62_linear" x1="31986.5" y1="94186.7" x2="23067.4" y2="93044.2" gradientUnits="userSpaceOnUse">
<stop stop-color="#AB316D"/>
<stop offset="1" stop-color="#792D3D"/>
</linearGradient>
<linearGradient id="paint63_linear" x1="45523.8" y1="135667" x2="31895.7" y2="153085" gradientUnits="userSpaceOnUse">
<stop stop-color="#AB316D"/>
<stop offset="1" stop-color="#792D3D"/>
</linearGradient>
<linearGradient id="paint64_linear" x1="43507.8" y1="133984" x2="31106.6" y2="146473" gradientUnits="userSpaceOnUse">
<stop stop-color="#AB316D"/>
<stop offset="1" stop-color="#792D3D"/>
</linearGradient>
<linearGradient id="paint65_linear" x1="8047.86" y1="14405" x2="8089.68" y2="13667.5" gradientUnits="userSpaceOnUse">
<stop stop-color="#444B8C"/>
<stop offset="1" stop-color="#26264F"/>
</linearGradient>
<linearGradient id="paint66_linear" x1="10436.1" y1="13402.4" x2="10600.4" y2="16770.3" gradientUnits="userSpaceOnUse">
<stop stop-color="#F36F56"/>
<stop offset="1" stop-color="#FFC444"/>
</linearGradient>
<linearGradient id="paint67_linear" x1="17659" y1="6067.4" x2="18073.6" y2="6331.31" gradientUnits="userSpaceOnUse">
<stop stop-color="#F36F56"/>
<stop offset="1" stop-color="#FFC444"/>
</linearGradient>
<linearGradient id="paint68_linear" x1="5222.98" y1="5065.35" x2="5530.89" y2="6378.67" gradientUnits="userSpaceOnUse">
<stop stop-color="#F36F56"/>
<stop offset="1" stop-color="#FFC444"/>
</linearGradient>
</defs>
</svg>
