<svg width="521" height="508" viewBox="0 0 521 508" fill="none" xmlns="http://www.w3.org/2000/svg">
<path d="M471.966 397.08C366.736 531.125 120.298 533.278 52.077 458.821C24.8474 429.107 17.658 378.077 7.09391 303.117C2.00333 267.033 1.27426 237.947 0.834247 217.999C-0.655185 150.115 -1.39714 116.17 9.57753 93.0773C41.0084 26.9754 150.199 1.24637 220.773 0.0527824C225.699 -0.031557 230.669 0.000833985 235.686 0.149956C318.326 2.5958 411.579 36.8523 469.089 110.059C475.099 117.696 480.649 125.681 485.71 133.973C538.206 219.94 529.373 323.96 471.966 397.08Z" fill="#F4F7FA" fill-opacity="0.1"/>
<path d="M381.423 29.3466C374.169 24.3064 363.616 22.1007 354.856 22.1961C292.762 22.891 294.355 152.134 306.185 180.079C318.016 208.025 312.664 217.957 265.284 236.959C217.904 255.961 243.615 282.979 250.937 299.418C258.258 315.857 271.172 329.182 237.116 348.894C203.059 368.605 216.24 378.013 216.24 378.013C216.24 378.013 287.097 439.251 281.727 418.226C276.356 397.202 280.243 364.48 338.645 357.242C363.8 354.125 401.467 338.969 407.806 311.354C409.278 304.924 409.879 295.236 407.828 288.874C404.981 280.047 398.466 273.441 394.474 265.24C385.171 246.13 403.227 230.1 413.216 216.001C418.432 208.639 423.63 201.104 427.411 192.888C435.262 175.837 430.377 158.628 419.126 144.419C413.73 137.605 406.423 130.504 403.624 122.08C400.614 113.03 401.533 100.261 401.284 90.709C401.089 83.2248 401.189 75.7443 400.152 68.3096C398.215 54.4779 393.55 37.7695 381.423 29.3466Z" fill="#EAEDF3"/>
<g style="mix-blend-mode:soft-light" opacity="0.8">
<g style="mix-blend-mode:soft-light" opacity="0.8">
<path d="M224.18 435.803C223.971 435.885 223.738 435.887 223.527 435.81C223.316 435.733 223.14 435.582 223.033 435.384C222.926 435.187 222.896 434.958 222.947 434.739C222.999 434.521 223.129 434.329 223.313 434.2C223.576 434.035 249.904 417.369 278.643 391.114C305.123 366.925 339.128 329.418 350.74 288.099C360.438 253.589 367.236 197.298 369.388 133.655C371.319 76.5864 368.911 34.6936 365.468 27.1617C365.394 26.9462 365.403 26.711 365.494 26.5019C365.584 26.2928 365.75 26.1247 365.958 26.0305C366.166 25.9362 366.402 25.9225 366.62 25.9919C366.838 26.0614 367.022 26.2091 367.136 26.4063C371.163 35.2161 372.956 82.3545 371.22 133.717C369.062 197.498 362.241 253.949 352.505 288.59C340.774 330.333 306.524 368.126 279.86 392.48C251.003 418.836 224.558 435.566 224.294 435.738C224.258 435.763 224.22 435.784 224.18 435.803Z" fill="white"/>
</g>
<g style="mix-blend-mode:soft-light" opacity="0.8">
<path d="M370.189 144.626C369.73 144.833 369.239 144.742 369.027 144.287C368.747 143.684 340.648 83.9074 309.821 72.4153C309.71 72.376 309.608 72.3147 309.521 72.2352C309.434 72.1556 309.363 72.0594 309.314 71.9523C309.266 71.8452 309.239 71.7294 309.236 71.6117C309.233 71.4941 309.253 71.377 309.297 71.2675C309.386 71.0426 309.56 70.8617 309.782 70.7642C310.004 70.6667 310.256 70.6605 310.482 70.7468C342.013 82.503 369.528 141.025 370.686 143.515C370.897 143.972 370.654 144.417 370.194 144.626H370.189Z" fill="white"/>
</g>
<g style="mix-blend-mode:soft-light" opacity="0.8">
<path d="M364.866 217.052C364.67 217.135 364.451 217.148 364.247 217.088C364.043 217.028 363.865 216.9 363.745 216.725C363.625 216.55 363.57 216.339 363.589 216.127C363.607 215.916 363.699 215.718 363.848 215.566C364.005 215.414 379.807 200.186 399.749 186.86C426.702 168.855 447.985 162.702 463.02 168.575C463.222 168.679 463.378 168.854 463.458 169.066C463.538 169.278 463.537 169.513 463.454 169.724C463.371 169.935 463.212 170.108 463.008 170.209C462.805 170.31 462.571 170.333 462.351 170.273C427.772 156.764 365.743 216.271 365.118 216.874C365.045 216.947 364.96 217.007 364.866 217.052Z" fill="white"/>
</g>
<g style="mix-blend-mode:soft-light" opacity="0.8">
<path d="M303.154 369.246C303.022 369.304 302.878 369.331 302.733 369.324C302.589 369.316 302.448 369.276 302.323 369.204C302.197 369.133 302.09 369.033 302.011 368.913C301.931 368.792 301.881 368.655 301.865 368.512C301.839 368.248 299.186 341.832 291.327 314.41C284.121 289.27 270.953 258.123 249.146 252.476C248.932 252.397 248.755 252.242 248.649 252.041C248.544 251.839 248.517 251.606 248.574 251.386C248.632 251.166 248.769 250.975 248.96 250.851C249.15 250.726 249.38 250.676 249.606 250.71C267.79 255.415 282.421 276.687 293.094 313.934C300.996 341.509 303.662 368.069 303.688 368.335C303.704 368.523 303.661 368.711 303.565 368.874C303.47 369.037 303.326 369.167 303.154 369.246Z" fill="white"/>
</g>
<g style="mix-blend-mode:soft-light" opacity="0.8">
<path d="M337.348 323.42C337.149 323.504 336.927 323.514 336.72 323.451C336.514 323.387 336.337 323.253 336.219 323.072C336.102 322.891 336.053 322.675 336.079 322.462C336.106 322.248 336.207 322.051 336.365 321.904C339.127 319.5 404.281 263.05 431.722 265.694C431.946 265.739 432.144 265.865 432.28 266.048C432.415 266.231 432.478 266.458 432.455 266.684C432.432 266.91 432.325 267.12 432.156 267.273C431.986 267.425 431.766 267.509 431.538 267.509C404.874 264.942 338.234 322.696 337.564 323.276C337.499 323.334 337.427 323.383 337.348 323.42Z" fill="white"/>
</g>
</g>
<path d="M515.172 93.199C510.667 85.6194 501.979 79.2646 493.966 75.7334C437.162 50.7469 384.846 169.035 383.99 199.349C383.133 229.664 374.129 236.495 323.1 234.244C272.07 231.992 284.231 267.193 284.06 285.17C283.888 303.147 290.095 320.609 250.898 324.498C211.701 328.387 219.784 342.385 219.784 342.385C219.784 342.385 258.8 427.352 262.659 406.007C266.518 384.661 283.667 356.477 339.833 373.983C364.025 381.522 404.611 383.272 421.87 360.751C425.889 355.507 430.462 346.936 431.241 340.299C432.323 331.091 429.14 322.389 428.919 313.279C428.402 292.047 451.504 284.908 466.461 276.197C474.269 271.65 482.136 266.935 488.994 261.018C503.234 248.734 505.944 231.059 501.616 213.483C499.539 205.05 495.846 195.58 496.8 186.755C497.823 177.276 503.98 166.026 507.719 157.236C510.656 150.344 513.857 143.577 516.004 136.383C520.001 123 522.704 105.87 515.172 93.199Z" fill="#D8DEE8"/>
<g style="mix-blend-mode:soft-light" opacity="0.8">
<g style="mix-blend-mode:soft-light" opacity="0.8">
<path d="M162.186 404.93C161.962 404.918 161.75 404.824 161.591 404.667C161.431 404.51 161.335 404.3 161.319 404.077C161.304 403.854 161.371 403.633 161.508 403.456C161.645 403.279 161.842 403.158 162.062 403.115C162.37 403.073 193.267 398.766 230.344 386.731C264.507 375.641 311.059 355.533 338.817 322.718C362 295.311 391.604 246.88 420.038 189.845C445.535 138.7 460.772 99.5776 460.772 91.3032C460.772 91.0601 460.869 90.8269 461.041 90.655C461.214 90.4831 461.448 90.3865 461.692 90.3865C461.936 90.3865 462.171 90.4831 462.343 90.655C462.516 90.8269 462.613 91.0601 462.613 91.3032C462.613 100.984 444.637 144.626 421.688 190.657C393.189 247.817 363.498 296.38 340.227 323.893C312.186 357.044 265.295 377.311 230.889 388.477C193.661 400.559 162.629 404.881 162.32 404.923C162.275 404.929 162.231 404.931 162.186 404.93Z" fill="white"/>
</g>
<g style="mix-blend-mode:soft-light" opacity="0.8">
<path d="M416.207 200.31C416.089 200.315 415.972 200.297 415.861 200.256C415.75 200.215 415.649 200.152 415.563 200.072C415.477 199.991 415.409 199.894 415.361 199.786C415.314 199.678 415.288 199.562 415.287 199.445C415.287 198.781 414.576 132.743 391.301 109.565C391.216 109.481 391.148 109.381 391.101 109.271C391.055 109.161 391.031 109.043 391.031 108.923C391.031 108.804 391.055 108.685 391.101 108.575C391.148 108.465 391.216 108.365 391.301 108.281C391.473 108.113 391.705 108.019 391.946 108.019C392.187 108.019 392.418 108.113 392.59 108.281C416.397 131.99 417.095 196.678 417.113 199.421C417.113 199.539 417.09 199.656 417.044 199.764C416.998 199.873 416.931 199.971 416.846 200.053C416.761 200.135 416.66 200.2 416.55 200.242C416.44 200.285 416.322 200.305 416.204 200.301L416.207 200.31Z" fill="white"/>
</g>
<g style="mix-blend-mode:soft-light" opacity="0.8">
<path d="M381.232 263.876C381.019 263.871 380.815 263.792 380.654 263.654C380.493 263.515 380.385 263.326 380.349 263.117C380.312 262.908 380.349 262.693 380.454 262.509C380.559 262.324 380.724 262.182 380.923 262.105C381.129 262.032 401.846 254.69 425.547 250.792C457.569 245.525 479.501 248.708 490.739 260.253C490.883 260.431 490.955 260.656 490.941 260.884C490.927 261.112 490.827 261.327 490.663 261.486C490.498 261.645 490.28 261.737 490.05 261.744C489.821 261.751 489.597 261.672 489.423 261.524C463.571 234.962 382.359 263.531 381.536 263.823C381.438 263.858 381.335 263.876 381.232 263.876Z" fill="white"/>
</g>
<g style="mix-blend-mode:soft-light" opacity="0.8">
<path d="M261.753 376.937C261.607 376.936 261.464 376.901 261.335 376.834C261.206 376.768 261.094 376.672 261.01 376.554C260.925 376.436 260.87 376.3 260.848 376.156C260.826 376.013 260.839 375.866 260.886 375.729C260.972 375.478 269.539 350.341 273.801 322.142C277.7 296.29 278.676 262.501 261.175 248.369C261.012 248.209 260.915 247.995 260.902 247.767C260.889 247.54 260.962 247.316 261.106 247.139C261.25 246.962 261.455 246.845 261.681 246.81C261.907 246.776 262.138 246.826 262.329 246.952C276.921 258.736 281.39 284.133 275.609 322.438C271.33 350.796 262.705 376.068 262.618 376.321C262.556 376.501 262.439 376.656 262.284 376.766C262.129 376.877 261.943 376.936 261.753 376.937Z" fill="white"/>
</g>
<g style="mix-blend-mode:soft-light" opacity="0.8">
<path d="M311.938 349.336C311.722 349.329 311.515 349.247 311.354 349.104C311.193 348.961 311.087 348.766 311.056 348.553C311.024 348.34 311.069 348.123 311.182 347.939C311.295 347.756 311.47 347.618 311.675 347.55C315.188 346.501 397.968 322.012 421.847 335.732C422.036 335.863 422.169 336.061 422.219 336.285C422.269 336.51 422.232 336.745 422.116 336.943C422.001 337.142 421.814 337.291 421.593 337.359C421.373 337.427 421.135 337.41 420.926 337.312C397.729 323.981 313.048 349.046 312.196 349.297C312.112 349.322 312.025 349.335 311.938 349.336Z" fill="white"/>
</g>
</g>
<path d="M287.231 65.1945L133.157 128.697C128.136 130.767 125.509 135.7 127.302 139.71L179.114 255.585C180.907 259.597 186.375 261.018 191.315 258.764L342.88 189.643C347.39 187.586 349.653 182.828 347.944 179.009L298.615 68.6909C296.908 64.8737 291.815 63.306 287.231 65.1945Z" fill="url(#paint0_linear)"/>
<g style="mix-blend-mode:soft-light" opacity="0.74">
<path d="M295.959 69.7964L345.325 180.202C346.489 182.804 344.957 186.04 341.882 187.442L272.251 219.136L190.207 256.483C186.845 258.014 183.06 257.074 181.84 254.344L130.078 138.566C128.859 135.84 130.711 132.451 134.128 131.049L288.187 67.4276C290.778 66.3586 293.611 66.905 295.165 68.6083C295.491 68.9598 295.759 69.3609 295.959 69.7964Z" fill="white"/>
</g>
<path d="M226.227 119.99L146.118 153.69L147.773 157.389L227.844 123.605L226.227 119.99Z" fill="white"/>
<path d="M288.008 93.9982L289.597 97.5496L298.397 93.8369L296.812 90.2947L288.008 93.9982Z" fill="white"/>
<g style="mix-blend-mode:soft-light">
<g style="mix-blend-mode:soft-light">
<path d="M168.473 159.192L151.756 166.295L150.051 162.481L166.775 155.395L168.473 159.192Z" fill="white"/>
</g>
<g style="mix-blend-mode:soft-light">
<path d="M259.532 120.501L179.199 154.636L177.505 150.85L257.879 116.803L259.532 120.501Z" fill="white"/>
</g>
<g style="mix-blend-mode:soft-light">
<path d="M198.536 154.077L182.089 161.101L180.397 157.317L196.851 150.309L198.536 154.077Z" fill="white"/>
</g>
<g style="mix-blend-mode:soft-light">
<path d="M288.145 115.807L209.089 149.57L207.41 145.814L286.503 112.135L288.145 115.807Z" fill="white"/>
</g>
<g style="mix-blend-mode:soft-light">
<path d="M201.414 160.513L184.983 167.568L183.289 163.782L199.73 156.745L201.414 160.513Z" fill="white"/>
</g>
<g style="mix-blend-mode:soft-light">
<path d="M290.95 122.078L211.958 155.988L210.279 152.231L289.309 118.407L290.95 122.078Z" fill="white"/>
</g>
<g style="mix-blend-mode:soft-light">
<path d="M177.174 178.65L160.498 185.846L158.793 182.031L175.475 174.853L177.174 178.65Z" fill="white"/>
</g>
<g style="mix-blend-mode:soft-light">
<path d="M268.008 139.457L187.872 174.035L186.178 170.249L266.353 135.757L268.008 139.457Z" fill="white"/>
</g>
<g style="mix-blend-mode:soft-light">
<path d="M207.168 173.385L190.762 180.499L189.07 176.715L205.484 169.618L207.168 173.385Z" fill="white"/>
</g>
<g style="mix-blend-mode:soft-light">
<path d="M296.558 134.62L217.698 168.82L216.019 165.063L294.918 130.95L296.558 134.62Z" fill="white"/>
</g>
<g style="mix-blend-mode:soft-light">
<path d="M210.046 179.821L193.655 186.966L191.961 183.18L208.361 176.053L210.046 179.821Z" fill="white"/>
</g>
<g style="mix-blend-mode:soft-light">
<path d="M299.361 140.891L220.565 175.235L218.886 171.48L297.721 137.22L299.361 140.891Z" fill="white"/>
</g>
<g style="mix-blend-mode:soft-light">
<path d="M212.924 186.256L196.545 193.43L194.854 189.646L211.239 182.488L212.924 186.256Z" fill="white"/>
</g>
<g style="mix-blend-mode:soft-light">
<path d="M302.163 147.163L223.433 181.653L221.752 177.896L300.523 143.491L302.163 147.163Z" fill="white"/>
</g>
<g style="mix-blend-mode:soft-light">
<path d="M242.669 180.862L226.556 187.958L224.875 184.201L240.997 177.124L242.669 180.862Z" fill="white"/>
</g>
<g style="mix-blend-mode:soft-light">
<path d="M317.38 147.97L253.01 176.31L251.344 172.582L315.743 144.312L317.38 147.97Z" fill="white"/>
</g>
<g style="mix-blend-mode:soft-light">
<path d="M191.671 211.078L175.064 218.426L173.357 214.611L189.973 207.281L191.671 211.078Z" fill="white"/>
</g>
<g style="mix-blend-mode:soft-light">
<path d="M282.135 171.05L202.328 206.364L200.634 202.578L280.479 167.35L282.135 171.05Z" fill="white"/>
</g>
<g style="mix-blend-mode:soft-light">
<path d="M221.556 205.563L205.218 212.829L203.526 209.044L219.871 201.795L221.556 205.563Z" fill="white"/>
</g>
<g style="mix-blend-mode:soft-light">
<path d="M310.577 165.976L232.038 200.902L230.359 197.145L308.935 162.304L310.577 165.976Z" fill="white"/>
</g>
<g style="mix-blend-mode:soft-light">
<path d="M224.434 212L208.109 219.295L206.417 215.509L222.749 208.23L224.434 212Z" fill="white"/>
</g>
<g style="mix-blend-mode:soft-light">
<path d="M313.381 172.247L234.909 207.317L233.229 203.562L311.739 168.576L313.381 172.247Z" fill="white"/>
</g>
<g style="mix-blend-mode:soft-light">
<path d="M200.372 230.534L183.806 237.975L182.1 234.159L198.673 226.737L200.372 230.534Z" fill="white"/>
</g>
<g style="mix-blend-mode:soft-light">
<path d="M290.608 190.006L210.999 225.76L209.306 221.976L288.954 186.306L290.608 190.006Z" fill="white"/>
</g>
<g style="mix-blend-mode:soft-light">
<path d="M230.187 224.871L213.89 232.227L212.198 228.441L228.503 221.103L230.187 224.871Z" fill="white"/>
</g>
<g style="mix-blend-mode:soft-light">
<path d="M318.988 184.789L240.645 220.15L238.966 216.395L317.346 181.119L318.988 184.789Z" fill="white"/>
</g>
</g>
<path d="M295.957 69.7965L345.324 180.202C346.488 182.804 344.956 186.04 341.881 187.443L272.263 219.132L219.823 101.855L295.193 68.5901C295.511 68.949 295.769 69.3563 295.957 69.7965Z" fill="white"/>
<path d="M287.231 65.1946L133.157 128.697C128.136 130.767 125.509 135.7 127.302 139.71L129.631 144.919L300.833 73.6487L298.624 68.6892C296.908 64.8738 291.815 63.3043 287.231 65.1946Z" fill="url(#paint1_linear)"/>
<path d="M142.543 132.58C143.127 133.887 142.42 135.433 140.96 136.034C139.5 136.635 137.83 136.063 137.254 134.751C136.678 133.438 137.381 131.894 138.843 131.295C140.304 130.695 141.958 131.276 142.543 132.58Z" fill="white"/>
<path d="M151.787 128.781C152.369 130.083 151.667 131.623 150.217 132.221C148.766 132.818 147.114 132.246 146.535 130.937C145.955 129.628 146.656 128.092 148.11 127.496C149.565 126.9 151.203 127.479 151.787 128.781Z" fill="white"/>
<path d="M160.971 125.006C161.551 126.304 160.855 127.839 159.413 128.433C157.972 129.027 156.328 128.455 155.746 127.149C155.164 125.844 155.864 124.313 157.307 123.721C158.751 123.129 160.391 123.706 160.971 125.006Z" fill="white"/>
<g style="mix-blend-mode:soft-light" opacity="0.5">
<g style="mix-blend-mode:soft-light" opacity="0.5">
<path d="M247.307 137.217C220.229 124.452 192.462 144.352 163.181 130.273C158.515 128.038 154.22 125.103 150.446 121.572L133.157 128.698C128.136 130.768 125.509 135.702 127.302 139.712L179.114 255.587C180.907 259.599 186.375 261.019 191.314 258.766L337.178 192.25C331.958 189.808 295.422 188.033 277.875 169.309C261.872 152.223 263.73 144.957 247.307 137.217Z" fill="white"/>
</g>
</g>
<g opacity="0.8">
<path opacity="0.8" d="M237.963 132.316L302.574 105.03C302.683 104.984 302.781 104.917 302.864 104.832C302.947 104.748 303.012 104.648 303.055 104.538C303.098 104.428 303.119 104.311 303.117 104.193C303.114 104.075 303.088 103.959 303.039 103.851L293.981 83.6061C293.886 83.392 293.71 83.2235 293.492 83.1365C293.274 83.0495 293.03 83.0509 292.812 83.1404L227.969 109.909C227.862 109.954 227.764 110.02 227.682 110.103C227.601 110.186 227.537 110.285 227.494 110.393C227.452 110.502 227.431 110.619 227.434 110.737C227.437 110.854 227.463 110.97 227.511 111.077L236.803 131.857C236.897 132.07 237.072 132.237 237.289 132.323C237.506 132.408 237.748 132.406 237.963 132.316Z" fill="url(#paint2_linear)"/>
<path opacity="0.8" d="M307.002 114.023L241.828 141.815C241.722 141.86 241.626 141.926 241.546 142.009C241.466 142.092 241.403 142.19 241.362 142.297C241.278 142.516 241.285 142.758 241.381 142.972L270.405 207.886C270.504 208.104 270.685 208.275 270.91 208.362C271.02 208.405 271.138 208.426 271.257 208.423C271.375 208.42 271.492 208.393 271.6 208.344L336.091 178.996C336.302 178.9 336.467 178.725 336.549 178.509C336.63 178.293 336.623 178.053 336.527 177.843L308.199 114.487C308.102 114.268 307.921 114.096 307.697 114.009C307.472 113.922 307.223 113.927 307.002 114.023Z" fill="url(#paint3_linear)"/>
</g>
<path d="M89.2776 257.75L62.4053 316.073L102.828 313.262L89.2776 257.75Z" fill="url(#paint4_linear)"/>
<path d="M404.108 255.028V454.366L231.486 464.413L231.114 464.421L219.903 351.048L231.086 233.232L231.489 233.256L404.108 255.028Z" fill="url(#paint5_linear)"/>
<path d="M230.838 233.232V464.421L89.5352 448.605V257.751L118.313 252.734L169.038 243.943L230.838 233.232Z" fill="url(#paint6_linear)"/>
<path opacity="0.8" d="M168.913 243.945L167.003 272.112L119.305 275.218L118.165 252.736L168.913 243.945Z" fill="white"/>
<path d="M230.745 233.235L308.035 304.865L458.501 313.262L403.359 255.026L230.745 233.235Z" fill="url(#paint7_linear)"/>
<path style="mix-blend-mode:multiply" opacity="0.1" d="M404.108 435.6V454.366L230.837 464.417V233.255C230.837 234.705 232.24 296.642 263.188 307.742C294.487 318.971 321.423 336.796 321.423 386.491C321.425 426.306 376.615 417.588 404.108 435.6Z" fill="url(#paint8_linear)"/>
<g style="mix-blend-mode:soft-light" opacity="0.2">
<path d="M230.838 234.601V464.417L89.5352 448.601V447.685C91.4536 416.855 158.664 410.817 156.377 384.063C154.012 356.515 159.892 337.611 190.603 320.328C218.799 304.452 228.92 244.364 230.838 234.601Z" fill="white"/>
</g>
<path d="M410.015 308.336C405.92 303.981 417.256 287.617 423.324 280.458C428.624 274.196 434.072 267.761 440.762 268.575C446.635 269.29 452.361 275.46 452.694 281.372C453.615 297.276 415.836 314.525 410.015 308.336Z" fill="url(#paint9_linear)"/>
<path d="M459.179 476.421C459.951 477.044 460.1 478.602 460.185 479.622C460.227 480.077 460.247 480.304 460.196 480.465C459.827 481.637 457.541 481.762 453.96 482.125C448.302 482.7 446.62 483.144 446.176 482.308C445.762 481.521 446.765 480.236 446.877 480.093C447.485 479.33 448.23 479.053 449.674 478.58C452.343 477.706 454.146 477.227 454.693 477.081C458.104 476.173 458.673 476.012 459.179 476.421Z" fill="url(#paint10_linear)"/>
<path d="M455.818 471.274L455.251 477.691C455.411 478.001 457.328 478.93 458.85 478.133L460.305 471.822L455.818 471.274Z" fill="url(#paint11_linear)"/>
<path d="M414.316 475.601C415.237 476.617 415.45 478.489 414.648 479.409C413.845 480.33 412.67 479.637 409.308 479.736C405.702 479.844 404.759 480.691 402.312 480.018C401.322 479.745 399.573 479.085 399.606 478.381C399.63 477.886 400.526 477.629 403.494 476.637C407.716 475.229 407.698 475.152 408.594 475.004C410.842 474.628 413.096 474.254 414.316 475.601Z" fill="url(#paint12_linear)"/>
<path d="M412.003 469.734L410.193 475.727C410.33 476.048 412.169 477.121 413.748 476.443L416.436 470.625L412.003 469.734Z" fill="url(#paint13_linear)"/>
<path d="M428.081 338.47C427.791 361.014 426.138 383.52 423.13 405.867C420.155 427.973 415.859 449.883 410.267 471.481L417.191 473.336C423.047 467.898 430.436 459.338 434 447.241C436.209 439.723 435.473 435.873 436.879 426.638C439.114 411.934 443.64 404.229 448.318 392.372C452.521 381.716 457.49 366.079 460.156 345.175L428.081 338.47Z" fill="#26264F"/>
<path d="M448.919 336.549C450.332 362.167 451.484 388.257 452.375 414.818C453.036 434.742 453.527 454.415 453.848 473.837L460.921 474.706C464.156 468.715 466.629 462.346 468.285 455.746C470.804 445.692 470.22 439.722 471.325 429.302C472.564 417.616 474.363 415.069 477.552 400.333C484.021 370.413 487.258 355.452 480.039 346.145C477.704 343.116 470.36 335.539 448.919 336.549Z" fill="#26264F"/>
<path d="M483.282 272.165C475.605 270.014 467.716 268.702 459.754 268.253C445.619 267.457 438.549 267.059 433.541 270.411C421.974 278.153 430.929 296.024 426.194 340.324C425.518 346.651 425.365 353.023 424.875 359.365C424.065 369.867 423.879 370.437 424.614 371.502C429.217 378.176 446.385 368.11 471.548 372.089C485.629 374.315 492.014 379.445 495.871 375.745C500.369 371.431 496.51 359.825 493.188 349.836C489.376 338.37 487.021 338.221 484.856 329.586C482.593 320.559 483.961 315.912 484.314 301.677C484.549 291.828 484.205 281.974 483.282 272.165Z" fill="url(#paint14_linear)"/>
<path d="M449.062 355.326C455.638 354.812 459.906 358.516 465.584 355.63C473.37 351.673 475.87 339.36 475.375 330.645C474.622 317.406 467.029 313.915 468.338 305.356C469.045 300.729 472.364 294.583 484.278 288.305C484.436 293.589 484.407 298.092 484.319 301.671C483.967 315.904 482.597 320.556 484.86 329.58C487.025 338.216 489.38 338.364 493.192 349.831C496.506 359.821 500.373 371.425 495.875 375.739C492.009 379.439 485.631 374.309 471.552 372.083C449.87 368.655 434.133 375.646 427.245 373.378C435.563 359.693 443.11 355.797 449.062 355.326Z" fill="url(#paint15_linear)"/>
<path d="M474.312 273.075C479.008 269.224 488.455 273.582 490.979 274.745C505.06 281.23 517.7 298.708 514.569 317.179C514.099 319.949 511.921 332.904 500.904 339.18C490.962 344.846 477.541 343.388 466.787 335.365L462.378 331.469L458.04 326.799C461.452 323.97 465.375 321.818 469.598 320.457C476.749 318.159 481.956 322.29 485.273 319.148C487.564 316.984 487.567 313.163 487.002 310.848C485.863 306.18 481.731 304.867 478.283 301.556C470.18 293.773 468.687 277.677 474.312 273.075Z" fill="url(#paint16_linear)"/>
<path d="M407.65 333.222L464.527 332.376L449.402 339.644L407.505 336.914L407.65 333.222Z" fill="#444B8C"/>
<path d="M466.536 333.874C466.536 334.392 466.376 334.897 466.078 335.32C465.779 335.744 465.358 336.066 464.869 336.243L446.696 343.339L446.613 338.42L464.529 332.369C464.763 332.302 465.01 332.29 465.249 332.334C465.489 332.378 465.715 332.477 465.909 332.623C466.104 332.769 466.262 332.958 466.37 333.175C466.479 333.392 466.536 333.632 466.536 333.874Z" fill="#26264F"/>
<path d="M462.295 330.391C462.681 330.304 460.413 325.807 458.631 326.322C456.849 326.837 448.137 331.87 447.347 333.94L446.556 336.01C446.556 336.01 450.356 336.305 452.712 335.517C455.069 334.728 459.152 331.087 462.295 330.391Z" fill="url(#paint17_linear)"/>
<path d="M445.102 303.913L449.111 340.266C449.249 341.52 447.486 343.382 446.221 343.329L387.408 339.741C386.939 339.719 386.491 339.538 386.139 339.229C385.787 338.919 385.552 338.499 385.473 338.038L378.09 302.929C377.869 301.645 380.176 300.331 381.478 300.362L443.109 302.087C443.607 302.101 444.083 302.293 444.449 302.629C444.815 302.965 445.047 303.421 445.102 303.913Z" fill="#26264F"/>
<path d="M443.758 304.973L447.767 341.325C447.8 341.62 447.768 341.919 447.673 342.2C447.579 342.482 447.424 342.739 447.22 342.956C447.016 343.172 446.768 343.341 446.492 343.453C446.215 343.564 445.918 343.615 445.621 343.601L386.064 340.794C385.595 340.772 385.147 340.591 384.795 340.281C384.443 339.971 384.208 339.551 384.129 339.09L378.053 303.82C378.002 303.521 378.017 303.213 378.099 302.921C378.181 302.628 378.328 302.357 378.528 302.127C378.727 301.898 378.976 301.715 379.255 301.593C379.535 301.471 379.838 301.412 380.143 301.42L441.771 303.145C442.268 303.16 442.742 303.354 443.107 303.69C443.472 304.025 443.703 304.481 443.758 304.973Z" fill="#26264F"/>
<g style="mix-blend-mode:multiply" opacity="0.3">
<path d="M408.786 332.275C413.987 330.075 412.152 325.895 418.292 320.679C426.392 313.798 434.65 316.783 437.54 311.449C438.44 309.788 438.869 307.203 437.303 303.015L441.765 303.14C442.264 303.154 442.741 303.347 443.107 303.684C443.473 304.022 443.704 304.479 443.757 304.973L447.767 341.325C447.8 341.62 447.768 341.919 447.673 342.2C447.579 342.482 447.424 342.739 447.22 342.956C447.016 343.172 446.768 343.341 446.492 343.453C446.215 343.564 445.918 343.615 445.621 343.601L386.064 340.794C385.594 340.772 385.147 340.591 384.795 340.281C384.443 339.971 384.208 339.551 384.129 339.09L383.289 334.222C385.313 333.087 387.501 332.271 389.775 331.802C398.506 330.037 402.799 334.802 408.786 332.275Z" fill="#26264F"/>
</g>
<path d="M381.696 335.383C381.671 335.308 381.663 335.228 381.674 335.15C381.685 335.071 381.713 334.996 381.758 334.931C381.803 334.866 381.862 334.812 381.932 334.773C382.001 334.734 382.079 334.712 382.158 334.708C383.552 334.637 386.783 334.609 388.567 335.697C390.885 337.11 393.882 339.69 391.358 340.992L389.001 342.207C388.896 342.263 388.774 342.28 388.657 342.255C387.819 342.071 384.296 341.292 383.911 341.1C383.559 340.922 382.215 336.951 381.696 335.383Z" fill="url(#paint18_linear)"/>
<path d="M458.7 252.872C458.663 256.143 458.956 259.409 459.575 262.622C460.081 265.22 460.448 265.889 460.913 266.434C461.615 267.253 462.677 267.941 468.683 269.424C471.951 270.231 472.365 270.209 472.444 270.524C472.796 272.099 463.885 277.469 454.678 276.175C449.044 275.383 443.917 272.182 444.232 270.5C444.546 268.819 450.176 269.716 451.854 266.65C453.021 264.521 451.712 261.498 450.167 258.995C451.664 256.214 457.202 255.666 458.7 252.872Z" fill="url(#paint19_linear)"/>
<path d="M450.59 252.14C449.929 250.039 450.884 247.118 452.983 245.8C454.787 244.667 456.824 245.134 458.041 245.415C461.572 246.227 465.348 249.151 465.725 252.787C465.95 254.941 462.675 258.093 462.13 258.676C461.513 259.334 460.804 259.384 460.027 259.776C458.95 260.313 457.254 261.175 454.471 262.633C454.561 261.78 454.578 260.921 454.519 260.066C454.443 258.955 454.226 257.858 453.871 256.802C452.867 254.026 451.216 254.133 450.59 252.14Z" fill="#26264F"/>
<path d="M457.985 261.819C457.985 261.819 454.454 264.672 450.118 262.811C446.235 261.146 448.829 252.063 452.034 251.077C453.106 250.749 454.896 251.088 456.136 251.962C456.873 252.477 457.026 252.914 458.241 253.733C459.362 254.491 459.758 254.478 460.019 254.921C460.345 255.472 460.345 256.555 458.64 258.874C459.671 258.379 460.688 258.407 461.218 258.939C461.396 259.136 461.516 259.378 461.564 259.639C461.765 260.853 460.365 261.819 457.985 261.819Z" fill="url(#paint20_linear)"/>
<path d="M460.39 254.456C460.147 254.531 460.478 255.449 460.163 256.472C459.55 258.46 456.722 260.103 454.622 259.589C453.381 259.281 453.307 258.445 451.4 257.534C450.47 257.093 449.476 256.803 448.454 256.676C447.064 258.601 446.887 260.948 447.972 262.451C449.141 264.068 451.354 264.123 452.278 264.145C452.897 264.16 454.878 264.211 456.385 262.919C457.956 261.571 457.37 260.218 458.887 259.468C459.653 259.091 460.476 259.102 461.59 258.238C461.829 258.053 462.054 257.849 462.262 257.629C461.618 256.177 460.734 254.347 460.39 254.456Z" fill="#26264F"/>
<path d="M449.606 257.978C449.606 257.978 450.306 258.727 451.816 259.171C451.847 259.176 451.877 259.189 451.901 259.209C451.926 259.228 451.946 259.254 451.958 259.283C451.941 259.435 450.766 259.727 449.977 259.171C449.424 258.777 449.141 258.018 449.279 257.899C449.34 257.846 449.478 257.904 449.606 257.978Z" fill="url(#paint21_linear)"/>
<path d="M331.974 188.508C335.993 171.273 355.099 161.501 373.976 166.506C384.726 169.361 393.016 176.407 397.227 184.942C397.252 184.995 397.276 185.05 397.302 185.103C397.374 185.252 397.444 185.402 397.514 185.552C397.641 185.825 397.766 186.102 397.882 186.377C397.952 186.541 398.021 186.705 398.088 186.869C398.201 187.144 398.31 187.419 398.414 187.696C398.475 187.855 398.536 188.013 398.598 188.172C398.712 188.491 398.819 188.812 398.922 189.133C398.959 189.25 399.002 189.364 399.037 189.481C399.17 189.917 399.293 190.354 399.405 190.794C399.434 190.912 399.46 191.029 399.489 191.146C399.57 191.474 399.648 191.804 399.716 192.136C399.749 192.299 399.78 192.463 399.812 192.626C399.867 192.918 399.918 193.211 399.966 193.504C399.993 193.675 400.019 193.846 400.044 194.016C400.086 194.316 400.121 194.617 400.154 194.918C400.171 195.075 400.191 195.233 400.204 195.391C400.239 195.768 400.263 196.148 400.283 196.527C400.283 196.606 400.294 196.685 400.298 196.766C400.316 197.223 400.323 197.681 400.32 198.141C400.32 198.277 400.32 198.412 400.309 198.548C400.309 198.876 400.29 199.204 400.272 199.534C400.263 199.701 400.248 199.87 400.237 200.037C400.214 200.34 400.185 200.645 400.152 200.953C400.134 201.124 400.115 201.294 400.093 201.465C400.053 201.784 400.003 202.103 399.952 202.422C399.928 202.571 399.905 202.719 399.88 202.868C399.797 203.331 399.696 203.797 399.594 204.261C397.017 215.324 388.012 223.527 376.706 226.42C375.667 226.687 374.608 226.907 373.53 227.082C372.991 227.17 372.448 227.246 371.901 227.309C367.905 227.769 363.862 227.595 359.921 226.796C359.358 226.682 358.8 226.56 358.248 226.429C358.063 226.384 357.879 226.33 357.695 226.281C357.327 226.186 356.959 226.098 356.607 225.984C356.388 225.92 356.173 225.848 355.954 225.78C355.633 225.681 355.315 225.58 355 225.474C354.77 225.395 354.541 225.311 354.313 225.228C354.017 225.12 353.72 225.012 353.428 224.898C353.194 224.807 352.964 224.715 352.732 224.618C352.45 224.502 352.17 224.383 351.892 224.262C351.66 224.16 351.429 224.055 351.2 223.949C350.93 223.826 350.662 223.698 350.395 223.564C350.167 223.451 349.94 223.337 349.714 223.221C349.453 223.085 349.193 222.946 348.937 222.805C348.716 222.684 348.494 222.561 348.276 222.438C348.195 222.392 348.112 222.348 348.031 222.302C335.838 215.137 328.875 201.799 331.974 188.508Z" fill="url(#paint22_linear)"/>
<path d="M401.896 204.679C397.886 221.875 378.856 231.681 360.061 226.754C341.965 222.011 330.815 205.281 334.558 189.227C338.301 173.173 355.731 162.999 374.079 166.62C393.147 170.384 405.906 187.483 401.896 204.679Z" fill="url(#paint23_linear)"/>
<path d="M357.876 203.278L345.962 193.308L346.476 191.108L361.803 186.44L360.928 190.193L350.423 193.004L358.748 199.545L357.876 203.278Z" fill="white"/>
<path d="M376.883 186.718L363.811 208.067L359.96 207.136L372.952 185.867L376.883 186.718Z" fill="white"/>
<path d="M375.964 203.577L386.886 201.377L378.185 194.063L379.076 190.242L391.643 201.426L391.105 203.736L375.088 207.381L375.964 203.577Z" fill="white"/>
<g style="mix-blend-mode:multiply" opacity="0.3">
<path style="mix-blend-mode:multiply" opacity="0.3" d="M370.036 221.173C368.029 211.219 374.119 203.859 369.922 196.802C365.704 189.714 357.297 193.484 350.806 187.085C348.324 184.641 345.916 180.505 345.185 172.953C339.943 176.995 336.105 182.588 334.558 189.219C330.815 205.273 341.965 222.003 360.061 226.747C364.169 227.83 368.429 228.222 372.667 227.905C371.411 225.827 370.521 223.55 370.036 221.173Z" fill="url(#paint24_linear)"/>
</g>
<path d="M148.845 68.7955C145.531 53.6493 156.975 38.7817 173.802 35.6997C183.385 33.9432 192.6 36.4202 199.148 41.6053L199.268 41.7043C199.382 41.7959 199.493 41.8876 199.605 41.9811C199.809 42.1498 200.01 42.3209 200.211 42.4945C200.333 42.5972 200.45 42.7011 200.56 42.8062C200.753 42.981 200.943 43.1588 201.129 43.3397C201.236 43.4424 201.345 43.5451 201.45 43.6496C201.659 43.8586 201.866 44.0731 202.068 44.2895C202.142 44.3683 202.217 44.4435 202.291 44.5223C202.561 44.8169 202.824 45.117 203.079 45.4225C203.147 45.5032 203.211 45.5875 203.278 45.6701C203.462 45.9011 203.646 46.1321 203.83 46.3686C203.918 46.4841 204.003 46.6033 204.09 46.7206C204.244 46.9309 204.395 47.1435 204.543 47.3587C204.628 47.4809 204.713 47.6062 204.797 47.7345C204.943 47.9558 205.085 48.1801 205.224 48.4074C205.297 48.5266 205.371 48.6439 205.441 48.7631C205.61 49.0491 205.774 49.3394 205.931 49.634C205.964 49.6945 205.999 49.755 206.032 49.8173C206.22 50.1718 206.398 50.5318 206.568 50.8972C206.617 51.0054 206.663 51.1154 206.713 51.2236C206.831 51.4858 206.945 51.7498 207.056 52.0175C207.111 52.1532 207.164 52.2907 207.218 52.43C207.313 52.6745 207.405 52.9251 207.494 53.1817C207.544 53.3229 207.593 53.4659 207.639 53.6089C207.728 53.8766 207.809 54.148 207.888 54.4193C207.925 54.5458 207.963 54.6705 207.998 54.7989C208.107 55.1986 208.208 55.6001 208.298 56.0089C210.425 65.7263 206.389 75.583 198.531 82.0955C197.809 82.6944 197.054 83.2646 196.267 83.8061C195.873 84.0762 195.472 84.339 195.063 84.5945C192.074 86.4502 188.81 87.8234 185.39 88.6629C184.899 88.7852 184.408 88.8946 183.917 88.9911C183.751 89.0241 183.587 89.0498 183.422 89.081C183.098 89.1415 182.774 89.202 182.45 89.2533C182.251 89.2845 182.054 89.3083 181.857 89.3358C181.566 89.3761 181.277 89.4165 180.986 89.4495C180.774 89.4733 180.563 89.4917 180.351 89.5118C180.077 89.5375 179.799 89.5632 179.526 89.5815C179.307 89.5962 179.088 89.6072 178.871 89.6182C178.604 89.631 178.337 89.642 178.072 89.6493C177.849 89.6493 177.628 89.6493 177.405 89.6585C177.144 89.6585 176.883 89.6585 176.623 89.6585C176.4 89.6585 176.177 89.6493 175.954 89.6402C175.697 89.631 175.439 89.6163 175.181 89.5998C174.96 89.587 174.739 89.5723 174.518 89.554L174.274 89.5375C161.929 88.4282 151.398 80.4728 148.845 68.7955Z" fill="url(#paint25_linear)"/>
<path d="M210.274 55.4736C213.579 70.5813 202.21 85.4489 185.479 88.5713C169.371 91.5782 154.245 82.5007 151.161 68.4032C148.077 54.3056 158.032 39.7406 173.924 35.7491C190.431 31.6 206.969 40.3676 210.274 55.4736Z" fill="url(#paint26_linear)"/>
<g style="mix-blend-mode:multiply" opacity="0.2">
<path style="mix-blend-mode:multiply" opacity="0.2" d="M191.271 80.4287C185.932 73.302 187.983 65.2018 182.001 61.1773C176.019 57.1529 170.759 63.2675 163.222 60.6273C160.337 59.6189 156.874 57.2464 153.449 51.5425C150.824 56.7 149.892 62.5598 151.166 68.3865C154.25 82.4895 169.377 91.567 185.484 88.5546C189.143 87.8777 192.663 86.5961 195.897 84.763C194.118 83.5916 192.553 82.1257 191.271 80.4287Z" fill="url(#paint27_linear)"/>
</g>
<path d="M172.411 54.1496L176.829 74.3526C177.113 75.6488 178.392 76.219 179.223 75.4178L193.889 61.1168C194.809 60.2239 194.393 58.3483 193.202 57.9797L174.108 52.0705C173.039 51.7368 172.127 52.8516 172.411 54.1496Z" fill="white"/>
<path d="M152.863 490.864C153.073 490.864 153.274 490.782 153.422 490.634C153.57 490.487 153.653 490.287 153.653 490.078V324.954C153.658 324.848 153.642 324.741 153.604 324.642C153.567 324.542 153.51 324.451 153.436 324.374C153.362 324.296 153.273 324.235 153.175 324.193C153.077 324.151 152.971 324.13 152.864 324.13C152.757 324.13 152.651 324.151 152.553 324.193C152.455 324.235 152.366 324.296 152.292 324.374C152.218 324.451 152.161 324.542 152.124 324.642C152.087 324.741 152.07 324.848 152.075 324.954V490.085C152.077 490.292 152.161 490.49 152.308 490.636C152.456 490.782 152.655 490.864 152.863 490.864Z" fill="#26264F"/>
<path d="M108.194 480.491C108.404 480.491 108.605 480.408 108.753 480.26C108.901 480.113 108.984 479.913 108.984 479.704V320.79C108.989 320.684 108.973 320.578 108.935 320.478C108.898 320.378 108.841 320.287 108.767 320.21C108.693 320.133 108.604 320.071 108.506 320.029C108.408 319.987 108.302 319.966 108.195 319.966C108.088 319.966 107.982 319.987 107.884 320.029C107.786 320.071 107.697 320.133 107.623 320.21C107.55 320.287 107.492 320.378 107.455 320.478C107.418 320.578 107.401 320.684 107.406 320.79V479.704C107.406 479.912 107.489 480.112 107.637 480.26C107.785 480.407 107.985 480.49 108.194 480.491Z" fill="#26264F"/>
<path d="M4.9164 487.885C5.07766 487.884 5.23467 487.834 5.36632 487.741C5.49797 487.648 5.59795 487.518 5.65283 487.367L65.3664 323.51C65.4306 323.315 65.4164 323.104 65.3267 322.92C65.2371 322.736 65.079 322.594 64.886 322.524C64.6931 322.454 64.4804 322.462 64.293 322.546C64.1057 322.629 63.9584 322.782 63.8825 322.972L4.16892 486.829C4.12523 486.949 4.11118 487.077 4.12798 487.203C4.14477 487.328 4.1919 487.448 4.26535 487.552C4.33879 487.656 4.43637 487.74 4.54975 487.798C4.66312 487.857 4.78892 487.886 4.9164 487.885Z" fill="#26264F"/>
<path d="M48.9996 500.719C49.1678 500.72 49.3318 500.667 49.4676 500.568C49.6033 500.469 49.7038 500.329 49.7544 500.169L103.348 327.411C103.4 327.215 103.373 327.007 103.274 326.83C103.175 326.652 103.012 326.52 102.817 326.46C102.623 326.401 102.413 326.418 102.231 326.508C102.049 326.599 101.909 326.756 101.84 326.947L48.2466 499.706C48.2111 499.823 48.2035 499.947 48.2245 500.067C48.2455 500.188 48.2946 500.302 48.3677 500.401C48.4408 500.499 48.536 500.579 48.6457 500.635C48.7555 500.69 48.8766 500.719 48.9996 500.719Z" fill="#26264F"/>
<path d="M108.685 320.625L153.497 323.929V324.932L102.284 327.218L64.0059 322.549V321.544L108.685 320.625Z" fill="#26264F"/>
<path d="M108.685 319.623L153.497 323.93L102.284 326.216L64.0059 321.544L108.685 319.623Z" fill="url(#paint28_linear)"/>
<path d="M60.5946 463.338C60.7867 463.338 60.9722 463.269 61.1165 463.143C61.2607 463.016 61.3539 462.842 61.3785 462.652C61.4031 462.463 61.3575 462.271 61.2501 462.112C61.1428 461.954 60.9811 461.839 60.7953 461.791L18.1283 450.643C18.028 450.617 17.9235 450.611 17.8207 450.625C17.7179 450.639 17.6189 450.673 17.5293 450.725C17.4397 450.777 17.3613 450.846 17.2986 450.929C17.2358 451.011 17.19 451.105 17.1636 451.205C17.1373 451.304 17.1309 451.409 17.145 451.511C17.159 451.613 17.1932 451.712 17.2455 451.801C17.2978 451.89 17.3673 451.968 17.4499 452.031C17.5325 452.093 17.6266 452.139 17.727 452.165L60.394 463.316C60.4596 463.332 60.5271 463.339 60.5946 463.338Z" fill="#26264F"/>
<path d="M72.6819 424.233C72.8787 424.232 73.068 424.158 73.2128 424.025C73.3576 423.892 73.4475 423.711 73.4647 423.515C73.482 423.32 73.4255 423.126 73.3062 422.97C73.187 422.814 73.0136 422.708 72.82 422.673L30.9447 415.28C30.7384 415.243 30.526 415.29 30.3542 415.41C30.1825 415.529 30.0654 415.712 30.0288 415.917C29.9921 416.123 30.039 416.334 30.159 416.505C30.2789 416.676 30.4622 416.793 30.6685 416.829L72.542 424.213C72.588 424.224 72.6348 424.23 72.6819 424.233Z" fill="#26264F"/>
<path d="M85.2495 383.812C85.2182 383.814 85.1868 383.814 85.1556 383.812L44.6279 378.611C44.4513 378.569 44.2966 378.463 44.1933 378.315C44.09 378.166 44.0455 377.985 44.0683 377.805C44.0912 377.626 44.1797 377.461 44.317 377.343C44.4542 377.225 44.6305 377.161 44.812 377.164L85.3397 382.36C85.5156 382.394 85.6732 382.49 85.783 382.631C85.8928 382.772 85.9472 382.948 85.9362 383.126C85.9251 383.304 85.8493 383.472 85.7229 383.598C85.5965 383.725 85.4282 383.801 85.2495 383.812Z" fill="#26264F"/>
<path d="M93.303 355.802C93.265 355.805 93.2269 355.805 93.1889 355.802L55.0786 349.865C54.9755 349.86 54.8746 349.834 54.7825 349.787C54.6904 349.741 54.6092 349.676 54.544 349.596C54.4789 349.516 54.4313 349.424 54.4044 349.324C54.3775 349.225 54.3718 349.121 54.3878 349.02C54.4037 348.918 54.441 348.821 54.497 348.735C54.5531 348.648 54.6268 348.575 54.7133 348.519C54.7998 348.462 54.8972 348.425 54.9991 348.409C55.1011 348.393 55.2053 348.398 55.3051 348.424L93.4153 354.363C93.5824 354.406 93.7289 354.507 93.8291 354.647C93.9292 354.787 93.9768 354.958 93.9634 355.129C93.9501 355.301 93.8766 355.462 93.7559 355.585C93.6351 355.708 93.4749 355.785 93.303 355.802Z" fill="#26264F"/>
<path d="M128.54 315.893C128.54 315.893 139.104 321.76 139.246 322.635C139.388 323.51 132.327 322.085 129.422 322.085C126.517 322.085 124.168 321.055 124.482 319.701C124.797 318.348 125.946 314.934 125.946 314.934L128.54 315.893Z" fill="url(#paint29_linear)"/>
<path d="M129.62 311.442L128.964 316.847C128.964 316.847 127.258 317.523 126.111 316.724L125.621 310.796L129.62 311.442Z" fill="url(#paint30_linear)"/>
<path d="M79.0529 311.322L77.79 313.57C77.4371 314.209 77.3347 314.956 77.5027 315.666C77.9409 317.53 78.8173 321.166 79.1984 322.11C79.7194 323.394 86.6971 324.168 86.6971 324.168C86.6971 324.168 87.3194 323.192 85.8705 322.015C84.4215 320.838 83.4899 320.653 82.98 318.915C82.47 317.177 82.1275 312.261 82.1275 312.261L79.0529 311.322Z" fill="url(#paint31_linear)"/>
<path d="M84.2763 305.639C83.8179 306.046 81.5773 313.62 81.5773 313.62C81.5773 313.62 80.8519 314.652 79.4729 313.128C78.0939 311.605 78.8488 312.445 78.8488 312.445L79.1065 304.995L84.2763 305.639Z" fill="url(#paint32_linear)"/>
<path d="M135.767 202.598C136.336 218.723 136.36 236.24 135.526 254.956C134.589 276.03 132.702 295.509 130.327 313.165C129.443 313.196 128.515 313.202 127.547 313.165C126.891 313.145 126.258 313.11 125.645 313.062C124.073 308.39 122.739 303.641 121.65 298.835C120.409 293.338 119.478 287.776 118.86 282.176C116.784 263.913 119.218 262.319 117.533 248.785C116.04 236.798 113.919 236.33 111.426 219.31C108.723 200.843 110.736 198.073 111.713 197.072C115.878 192.822 125.659 195.722 135.767 202.598Z" fill="url(#paint33_linear)"/>
<path style="mix-blend-mode:multiply" opacity="0.3" d="M111.71 197.083C115.683 193.018 124.771 195.479 134.368 201.681C123.322 214.965 122.123 223.58 123.447 229.17C124.944 235.489 129.491 237.309 129.475 244.219C129.453 252.71 122.571 254.96 122.718 263.944C122.816 269.884 125.848 269.824 126.553 277.161C127.398 285.845 123.447 288.835 124.727 295.259C125.279 298.022 126.848 301.634 131.323 305.354C131.001 307.993 130.67 310.604 130.325 313.167C129.442 313.198 128.514 313.204 127.545 313.167C126.89 313.147 126.257 313.112 125.644 313.064C124.071 308.392 122.738 303.644 121.648 298.838C120.408 293.341 119.477 287.78 118.859 282.179C116.783 263.916 119.216 262.323 117.532 248.788C116.039 236.801 113.918 236.334 111.425 219.314C108.72 200.853 110.731 198.082 111.71 197.083Z" fill="url(#paint34_linear)"/>
<path d="M128.926 202.328C117.635 220.747 107.955 240.098 99.9936 260.169C93.7284 275.948 88.5009 292.117 84.3444 308.572C83.3672 309.082 82.2539 309.275 81.1612 309.122C79.1084 308.82 77.8786 307.36 77.5564 306.953C76.3284 298.44 76.0511 289.817 76.7297 281.243C77.0556 277.148 77.6337 270.333 79.9774 261.918C82.6028 252.492 84.407 251.962 87.8314 241.99C91.3847 231.638 90.5249 229.055 93.9291 216.101C95.9685 208.372 98.5109 200.782 101.54 193.381L128.926 202.328Z" fill="url(#paint35_linear)"/>
<path d="M146.754 100.214C142.52 97.425 137.497 98.1969 134.093 101.849C130.464 105.747 130.242 111.566 125.915 115.034C120.138 119.674 112.61 118.779 107.514 118.172C95.2465 116.706 92.0485 109.861 86.3412 112.227C79.1757 115.189 80.9781 127.27 73.6967 129.525C68.8307 131.032 66.5772 126.084 59.7524 125.989C51.7326 125.877 44.3333 132.563 40.8556 139.567C34.4965 152.368 40.1651 168.378 47.6381 177.336C53.7781 184.692 65.2756 192.244 72.8921 188.559C78.9088 185.648 79.3359 177.254 84.9604 176.931C88.961 176.702 89.9663 180.875 95.0016 182.098C103.272 184.115 111.183 175.439 113.341 173.076C119.492 166.336 117.647 163.206 124.803 150.751C127.629 145.832 131.7 138.746 138.749 131.79C146.708 123.933 150.788 123.818 152.347 117.905C153.717 112.705 152.688 106.081 148.962 102.078C148.303 101.372 147.562 100.746 146.754 100.214Z" fill="url(#paint36_linear)"/>
<path d="M218.939 136.672C218.939 136.672 221.608 135.205 223.418 134.024C225.228 132.844 232.202 130.442 232.202 130.442C232.202 130.442 232.202 131.359 230.622 132.052C229.043 132.745 225.917 133.757 225.999 134.85C226.082 135.942 227.104 137.358 225.333 138.502C223.562 139.646 222.338 137.71 220.824 138.586C219.311 139.462 217.711 140.443 217.711 140.443L218.939 136.672Z" fill="url(#paint37_linear)"/>
<path d="M219.011 134.919C219.22 137.252 219.429 139.584 219.639 141.916C215.747 146.158 211.307 149.866 206.435 152.944C203.806 154.594 195.843 159.326 185.311 161.171C170.974 163.681 148.084 161.506 146.243 150.72C144.599 141.094 156.424 128.757 159.315 126.606C164.994 129.384 169.676 134.437 175.91 138.011C177.952 139.182 183.295 142.178 190.532 143.003C203.922 144.53 215.07 137.626 219.011 134.919Z" fill="url(#paint38_linear)"/>
<path d="M166.063 133.876C165.467 136.863 156.14 135.26 154.216 140.68C153.183 143.588 155.376 145.436 155.468 150.375C155.571 155.905 152.923 159.046 150.894 163.393C147.921 169.764 147.91 176.009 147.888 188.5C147.857 206.285 151.804 209.857 148.44 215.586C144.055 223.045 133.528 223.521 130.674 223.653C120.938 224.093 119.782 218.943 109.218 218.336C97.1534 217.634 95.4338 224.165 86.8065 221.38C78.9249 218.835 76.2719 212.066 70.1337 213.469C66.2969 214.345 65.2806 217.458 61.6648 217.121C58.0489 216.783 54.2673 213.192 54.0114 209.512C53.6929 204.928 58.7135 199.175 66.5841 199.166C69.7139 200.389 74.8947 201.804 80.661 200.231C90.1076 197.653 95.0214 188.709 100.477 178.779C104.251 171.908 111.19 159.277 111.273 142.717C111.308 135.887 110.148 133.889 111.825 130.238C117.252 118.385 138.313 120.154 140.097 120.325C154.429 121.687 166.783 130.27 166.063 133.876Z" fill="url(#paint39_linear)"/>
<path d="M170.764 148.794L144.311 149.943C144.163 149.954 144.022 150.011 143.907 150.105C143.792 150.198 143.709 150.325 143.669 150.467L131.208 188.959C131.024 189.509 131.589 190.892 132.114 190.829L158.267 186.867C158.402 186.846 158.529 186.788 158.633 186.699C158.738 186.61 158.815 186.493 158.856 186.363L171.821 150.427C172.009 149.903 171.279 148.772 170.764 148.794Z" fill="url(#paint40_linear)"/>
<path d="M171.181 149.735L144.728 150.885C144.58 150.898 144.44 150.955 144.325 151.048C144.211 151.142 144.127 151.268 144.085 151.409L131.625 189.901C131.441 190.451 131.848 191.023 132.373 190.961L158.683 187.811C158.819 187.79 158.946 187.732 159.05 187.643C159.154 187.554 159.231 187.437 159.272 187.307L171.875 150.821C172.055 150.282 171.687 149.713 171.181 149.735Z" fill="url(#paint41_linear)"/>
<path d="M163.954 151.169L164.974 148.1C164.998 148.039 165.008 147.973 165.002 147.908C164.996 147.843 164.974 147.78 164.94 147.725C164.905 147.669 164.858 147.622 164.802 147.588C164.746 147.554 164.682 147.533 164.617 147.528H154.988C154.903 147.53 154.82 147.56 154.754 147.613C154.687 147.667 154.64 147.74 154.62 147.823L153.651 151.217C153.631 151.277 153.624 151.342 153.632 151.405C153.641 151.468 153.663 151.529 153.699 151.582C153.735 151.635 153.782 151.68 153.838 151.712C153.893 151.744 153.956 151.763 154.02 151.767L163.593 151.44C163.674 151.439 163.753 151.411 163.818 151.363C163.882 151.314 163.93 151.246 163.954 151.169Z" fill="url(#paint42_linear)"/>
<path style="mix-blend-mode:multiply" opacity="0.3" d="M147.663 181.642C149.381 175.437 146.559 171.398 149.44 166.578C153.522 159.759 162.293 162.645 165.019 157.143C165.756 155.66 166.105 153.449 165.115 149.993L171.181 149.73C171.693 149.708 172.059 150.28 171.875 150.808L159.273 187.294C159.232 187.425 159.155 187.541 159.051 187.63C158.947 187.719 158.82 187.778 158.684 187.799L142.692 189.715C145.542 186.959 146.966 184.165 147.663 181.642Z" fill="url(#paint43_linear)"/>
<path d="M128.348 177.032C128.348 177.032 132.345 176.146 133.886 175.066C135.427 173.986 137.061 172.25 139.335 172.344C141.609 172.437 143.895 173.726 142.846 174.021C141.797 174.317 139.834 176.636 138.337 177.549C136.841 178.462 133.414 178.544 132.777 178.495C132.14 178.445 129.624 180.13 129.624 180.13L128.348 177.032Z" fill="url(#paint44_linear)"/>
<path style="mix-blend-mode:multiply" opacity="0.3" d="M149.591 207.915C147.803 209.811 133.102 199.006 129.978 200.304C131.758 194.01 121.596 189.401 121.984 179.99C122.306 172.148 129.621 169.088 128.133 164.013C126.756 159.308 120.147 160.826 117.473 155.339C114.682 149.609 120.051 144.178 118.909 137.536C118.442 134.806 116.844 131.698 112.72 128.596C112.373 129.118 112.065 129.665 111.799 130.233C110.128 133.883 111.287 135.882 111.247 142.712C111.164 159.273 104.225 171.902 100.451 178.774C94.9939 188.708 90.0819 197.659 80.6353 200.226C74.869 201.799 69.6864 200.383 66.5584 199.16C58.6896 199.16 53.6709 204.932 53.9857 209.507C54.2416 213.186 58.0011 216.776 61.639 217.115C65.277 217.455 66.2749 214.34 70.108 213.463C76.2462 212.062 78.8992 218.83 86.7808 221.375C95.4099 224.16 97.1277 217.629 109.192 218.331C119.756 218.947 120.913 224.097 130.648 223.648C133.494 223.518 144.027 223.043 148.415 215.581C149.911 213.074 149.981 210.973 149.591 207.915Z" fill="url(#paint45_linear)"/>
<path d="M128.446 175.188L132.128 182.492C130.232 183.526 109.96 194.206 95.2644 183.633C93.4473 182.325 88.6182 178.851 86.0167 172.047C83.1483 164.548 84.7574 157.575 85.8013 153.047C88.3788 141.837 95.6934 130.077 106.053 125.361C110.013 123.557 114.715 122.644 119.138 121.784C122.888 121.051 128.783 120.163 128.908 120.796C128.969 121.104 127.599 121.498 126.649 122.098C120.808 125.778 128.225 140.982 121.358 148.261C114.78 155.243 106.245 154.09 104.868 160.417C104.229 163.351 105.552 166.006 106.142 167.183C109.455 173.754 118.309 176.697 128.446 175.188Z" fill="url(#paint46_linear)"/>
<path d="M142.208 109.381C142.208 109.381 139.827 117.082 136.868 118.288C133.91 119.495 129.215 120.864 128.628 121.405C128.04 121.946 144.382 127.846 153.545 125.127C150.934 123.854 150.231 123.447 150.231 123.447C149.061 122.799 147.979 122.003 147.013 121.08C146.182 120.263 144.883 118.737 143.903 116.205L144.759 111.831L142.208 109.381Z" fill="url(#paint47_linear)"/>
<path d="M141.14 112.745C141.14 112.745 142.521 116.161 145.793 115.637C148.724 115.167 148.574 106.961 146.582 105.562C145.918 105.096 144.572 104.918 143.572 105.325C142.869 105.611 140.776 107.526 141.243 110.316C140.597 109.933 139.954 109.993 139.732 110.338C139.448 110.774 139.916 111.565 140.012 111.744C140.27 112.19 140.666 112.541 141.14 112.745Z" fill="url(#paint48_linear)"/>
<path d="M398.288 165.806C397.326 165.812 396.388 165.506 395.617 164.933L322.02 110.023C321.515 109.646 321.093 109.172 320.776 108.63C320.46 108.087 320.257 107.486 320.178 106.864C320.094 106.181 320.147 105.488 320.334 104.825C320.521 104.163 320.838 103.544 321.267 103.004L354.137 61.2874L433.51 123.926L402.316 163.796C401.839 164.413 401.229 164.914 400.531 165.263C399.832 165.613 399.064 165.8 398.282 165.813L398.288 165.806Z" fill="url(#paint49_linear)"/>
<path d="M354.483 64.1897L322.892 104.277C321.842 105.608 322.008 107.445 323.26 108.376L396.849 163.287C397.976 164.128 399.694 163.787 400.688 162.526L430.613 124.553L354.483 64.1897Z" fill="white"/>
<path d="M433.835 119.241L359.167 59.6648C357.898 58.6527 356.017 58.9094 354.969 60.2405L351.73 64.3548L431.038 127.059L434.106 123.169C435.1 121.913 434.978 120.153 433.835 119.241Z" fill="url(#paint50_linear)"/>
<path d="M359.397 64.7214C358.933 65.3118 358.108 65.4401 357.576 65.0111C357.044 64.5821 356.972 63.7533 357.438 63.163C357.904 62.5726 358.727 62.4442 359.261 62.8733C359.795 63.3023 359.861 64.1274 359.397 64.7214Z" fill="white"/>
<path style="mix-blend-mode:multiply" opacity="0.2" d="M340.7 113.112L335.013 108.838L358.566 78.9529L364.159 83.344L340.7 113.112Z" fill="url(#paint51_linear)"/>
<path d="M340.7 113.112L335.013 108.838L346.195 94.6489L351.838 98.9796L340.7 113.112Z" fill="url(#paint52_linear)"/>
<path style="mix-blend-mode:multiply" opacity="0.2" d="M348.54 119.005L342.914 114.777L366.338 85.0527L371.872 89.3962L348.54 119.005Z" fill="url(#paint53_linear)"/>
<path d="M348.541 119.005L342.914 114.777L348.474 107.72L354.079 111.977L348.541 119.005Z" fill="url(#paint54_linear)"/>
<path style="mix-blend-mode:multiply" opacity="0.2" d="M356.291 124.835L350.728 120.651L374.026 91.0864L379.502 95.3841L356.291 124.835Z" fill="url(#paint55_linear)"/>
<path d="M356.291 124.835L350.728 120.651L353.631 116.966L359.184 121.165L356.291 124.835Z" fill="url(#paint56_linear)"/>
<path style="mix-blend-mode:multiply" opacity="0.2" d="M363.969 130.601L358.462 126.463L381.635 97.0564L387.054 101.308L363.969 130.601Z" fill="url(#paint57_linear)"/>
<path d="M363.969 130.602L358.462 126.464L376.617 103.426L382.052 107.654L363.969 130.602Z" fill="url(#paint58_linear)"/>
<path style="mix-blend-mode:multiply" opacity="0.2" d="M371.557 136.309L366.109 132.213L389.16 102.964L394.521 107.17L371.557 136.309Z" fill="url(#paint59_linear)"/>
<path d="M371.557 136.309L366.109 132.213L382.114 111.904L387.501 116.075L371.557 136.309Z" fill="url(#paint60_linear)"/>
<path style="mix-blend-mode:multiply" opacity="0.2" d="M379.066 141.956L373.676 137.902L396.606 108.807L401.909 112.969L379.066 141.956Z" fill="url(#paint61_linear)"/>
<path d="M379.066 141.956L373.676 137.902L393.272 113.037L398.587 117.184L379.066 141.956Z" fill="url(#paint62_linear)"/>
<path style="mix-blend-mode:multiply" opacity="0.2" d="M386.501 147.543L381.167 143.533L403.976 114.59L409.225 118.708L386.501 147.543Z" fill="url(#paint63_linear)"/>
<path d="M386.501 147.543L381.167 143.533L395.178 125.754L400.458 129.832L386.501 147.543Z" fill="url(#paint64_linear)"/>
<path style="mix-blend-mode:multiply" opacity="0.2" d="M393.855 153.073L388.576 149.103L411.266 120.312L416.459 124.388L393.855 153.073Z" fill="url(#paint65_linear)"/>
<path d="M393.855 153.072L388.576 149.103L396.454 139.107L401.703 143.113L393.855 153.072Z" fill="url(#paint66_linear)"/>
<path d="M193.497 211.851C187.001 199.514 193.359 183.915 207.202 177.25C215.085 173.455 223.661 173.413 230.583 176.352L230.71 176.409C230.83 176.46 230.95 176.515 231.067 176.568C231.285 176.665 231.5 176.766 231.716 176.869L232.084 177.052C232.292 177.159 232.499 177.267 232.704 177.379C232.822 177.443 232.94 177.505 233.056 177.571C233.288 177.703 233.518 177.839 233.746 177.978C233.829 178.028 233.912 178.077 233.995 178.129C234.299 178.319 234.599 178.517 234.893 178.721C234.971 178.776 235.048 178.833 235.125 178.888C235.342 179.043 235.56 179.199 235.771 179.362C235.876 179.441 235.978 179.524 236.081 179.606C236.265 179.752 236.449 179.9 236.633 180.052L236.942 180.318C237.123 180.475 237.3 180.636 237.474 180.8C237.566 180.886 237.659 180.969 237.749 181.057C237.964 181.264 238.175 181.477 238.382 181.695C238.424 181.74 238.47 181.783 238.513 181.828C238.758 182.091 238.999 182.361 239.234 182.637C239.304 182.718 239.369 182.802 239.437 182.885C239.603 183.084 239.765 183.286 239.923 183.491C240.004 183.596 240.081 183.702 240.161 183.81C240.303 184.004 240.443 184.199 240.58 184.397C240.658 184.509 240.733 184.619 240.809 184.733C240.949 184.944 241.085 185.158 241.217 185.376C241.28 185.477 241.343 185.576 241.401 185.679C241.586 186 241.77 186.324 241.954 186.656C246.122 194.573 244.984 204.074 239.733 211.578C239.251 212.269 238.734 212.941 238.181 213.595C237.905 213.923 237.62 214.246 237.327 214.565C235.181 216.882 232.681 218.847 229.919 220.386C229.523 220.607 229.126 220.818 228.727 221.019C228.593 221.087 228.457 221.149 228.321 221.215C228.054 221.345 227.787 221.473 227.52 221.594C227.356 221.668 227.19 221.736 227.026 221.807C226.785 221.912 226.542 222.014 226.299 222.111C226.115 222.183 225.942 222.249 225.763 222.317C225.531 222.405 225.299 222.5 225.066 222.574C224.881 222.64 224.697 222.7 224.513 222.757C224.285 222.832 224.057 222.905 223.828 222.973C223.637 223.031 223.445 223.086 223.254 223.14C223.028 223.204 222.802 223.265 222.575 223.323C222.379 223.373 222.186 223.421 221.991 223.466C221.764 223.52 221.538 223.569 221.312 223.615C221.116 223.655 220.921 223.696 220.728 223.732L220.513 223.776C209.536 225.756 198.504 221.363 193.497 211.851Z" fill="url(#paint67_linear)"/>
<path d="M243.538 185.73C250.016 198.036 243.722 213.617 229.974 220.295C216.737 226.723 201.458 222.449 195.41 210.961C189.362 199.472 194.502 184.493 207.32 177.263C220.633 169.752 237.061 173.422 243.538 185.73Z" fill="url(#paint68_linear)"/>
<g style="mix-blend-mode:multiply" opacity="0.3">
<path style="mix-blend-mode:multiply" opacity="0.3" d="M233.043 211.863C226.711 206.954 226.549 199.448 220.405 197.387C214.262 195.326 211.165 201.866 203.998 201.375C201.256 201.192 197.688 199.952 193.356 195.822C192.316 200.913 192.911 206.214 195.409 210.959C201.457 222.447 216.736 226.726 229.973 220.293C232.982 218.838 235.725 216.892 238.089 214.536C236.266 213.938 234.559 213.034 233.043 211.863Z" fill="url(#paint69_linear)"/>
</g>
<path d="M237.711 197.127L224.394 191.161C224.328 191.131 224.256 191.119 224.184 191.124C224.112 191.129 224.042 191.152 223.981 191.19C223.92 191.229 223.87 191.282 223.834 191.344C223.798 191.407 223.779 191.477 223.777 191.549L223.625 199.908L211.085 194.289C211.019 194.259 210.947 194.247 210.875 194.252C210.803 194.257 210.733 194.28 210.672 194.318C210.611 194.357 210.56 194.41 210.525 194.472C210.489 194.535 210.47 194.605 210.468 194.677L210.1 214.556C210.085 214.61 210.091 214.669 210.118 214.718C210.145 214.768 210.191 214.805 210.245 214.822C210.385 214.9 210.481 214.774 210.614 214.688L223.336 206.655L229.864 202.534L237.596 197.648C237.733 197.561 237.887 197.53 237.876 197.371C237.885 197.317 237.872 197.262 237.842 197.216C237.811 197.171 237.764 197.139 237.711 197.127Z" fill="white"/>
<path d="M223.287 187.257C225.362 185.947 225.978 183.21 224.663 181.144C223.348 179.078 220.599 178.464 218.524 179.774C216.45 181.084 215.834 183.821 217.149 185.887C218.464 187.953 221.212 188.567 223.287 187.257Z" fill="white"/>
<path d="M279.291 22.8635C283.472 11.2393 297.501 6.00658 310.175 10.9954C317.392 13.8373 322.567 19.3817 324.793 25.6357C324.806 25.6742 324.819 25.7145 324.832 25.753C324.87 25.863 324.905 25.9712 324.942 26.0812C325.009 26.281 325.073 26.4809 325.126 26.6826C325.162 26.8048 325.196 26.924 325.229 27.0401C325.286 27.2393 325.339 27.4392 325.388 27.6396C325.417 27.7552 325.447 27.8688 325.472 27.9843C325.526 28.2135 325.574 28.4445 325.62 28.6774C325.636 28.7617 325.655 28.8442 325.671 28.9286C325.729 29.2403 325.779 29.5532 325.822 29.8673C325.833 29.9498 325.841 30.0342 325.852 30.1185C325.881 30.3532 325.907 30.5879 325.929 30.8225C325.94 30.938 325.947 31.0536 325.955 31.1691C325.97 31.3756 325.981 31.5828 325.99 31.7906C325.99 31.9128 325.993 32.0351 326.001 32.1573C326.001 32.3682 326.001 32.5808 326.001 32.7917C326.001 32.9017 326.001 33.0135 326.001 33.1235C326.001 33.3876 325.981 33.6534 325.964 33.9174C325.964 33.9724 325.964 34.0274 325.964 34.0824C325.939 34.4015 325.908 34.7199 325.868 35.0377C325.857 35.1312 325.841 35.221 325.828 35.3182C325.797 35.5455 325.762 35.7729 325.723 35.9984C325.703 36.1139 325.681 36.2294 325.657 36.3449C325.616 36.5527 325.572 36.7605 325.524 36.9683C325.498 37.0857 325.471 37.2012 325.441 37.3185C325.388 37.5367 325.327 37.753 325.257 37.9712C325.228 38.0721 325.202 38.1729 325.171 38.2737C325.075 38.5891 324.974 38.9026 324.859 39.2161C322.177 46.6747 315.275 51.636 307.207 52.7324C306.471 52.8339 305.72 52.9017 304.954 52.936C304.573 52.9531 304.191 52.9622 303.807 52.9635C301.001 52.9612 298.214 52.5169 295.548 51.647C295.166 51.5248 294.789 51.3934 294.417 51.2528C294.292 51.2052 294.169 51.1538 294.049 51.1062C293.804 51.0108 293.559 50.9228 293.312 50.8128C293.165 50.7505 293.022 50.6845 292.876 50.6203C292.663 50.525 292.449 50.437 292.239 50.3306C292.086 50.2573 291.935 50.1803 291.783 50.1051C291.586 50.0061 291.389 49.9089 291.195 49.8062C291.041 49.7237 290.888 49.6394 290.737 49.5551C290.553 49.4524 290.369 49.3479 290.184 49.2397C290.032 49.1505 289.881 49.0594 289.73 48.9665C289.553 48.8577 289.377 48.7471 289.203 48.6347C289.055 48.5381 288.907 48.4403 288.76 48.3413C288.588 48.2258 288.421 48.1084 288.255 47.9893C288.089 47.8701 287.968 47.7858 287.826 47.6813L287.668 47.5676C279.814 41.6198 276.073 31.8236 279.291 22.8635Z" fill="url(#paint70_linear)"/>
<path d="M326.435 39.6817C322.265 51.2746 308.285 56.5495 295.659 51.6193C283.508 46.8798 277.134 34.3848 281.026 23.5673C284.918 12.7499 297.813 7.09182 310.24 11.0759C323.148 15.2177 330.605 28.0887 326.435 39.6817Z" fill="url(#paint71_linear)"/>
<g style="mix-blend-mode:multiply" opacity="0.3">
<path style="mix-blend-mode:multiply" opacity="0.3" d="M303.025 48.554C302.439 41.497 307.259 36.8858 304.917 31.6586C302.576 26.4314 296.439 28.3455 292.461 23.3952C290.938 21.5012 289.605 18.4448 289.71 13.1516C285.752 15.5351 282.638 19.0994 281.029 23.5694C277.137 34.3868 283.507 46.88 295.662 51.6214C298.421 52.7018 301.341 53.3153 304.302 53.4365C303.6 51.8936 303.167 50.2422 303.025 48.554Z" fill="url(#paint72_linear)"/>
</g>
<path d="M320.763 31.8655L320.093 31.7152C320.09 31.1445 320.029 30.5755 319.909 30.0174L320.568 29.8066C320.647 29.7793 320.719 29.7364 320.781 29.6804C320.842 29.6245 320.892 29.5566 320.926 29.481C320.961 29.4053 320.979 29.3235 320.981 29.2405C320.983 29.1575 320.967 29.075 320.936 28.998L320.509 27.8319C320.452 27.6688 320.335 27.5335 320.181 27.4534C320.028 27.3734 319.849 27.3546 319.682 27.4011L318.988 27.6211C318.705 27.1182 318.374 26.6436 318 26.2038L318.482 25.6391C318.588 25.5038 318.637 25.3331 318.62 25.1624C318.603 24.9917 318.521 24.8341 318.39 24.7224L317.447 23.8808C317.386 23.822 317.314 23.776 317.235 23.7456C317.156 23.7151 317.071 23.7009 316.986 23.7036C316.901 23.7063 316.818 23.726 316.741 23.7615C316.664 23.797 316.595 23.8475 316.538 23.9101L316.043 24.4877C315.562 24.1765 315.052 23.913 314.52 23.7011L314.645 22.9201C314.669 22.745 314.627 22.5672 314.527 22.4212C314.427 22.2752 314.276 22.1714 314.104 22.1298L312.891 21.8457C312.809 21.8241 312.724 21.8199 312.64 21.8334C312.557 21.8469 312.478 21.8778 312.407 21.924C312.336 21.9702 312.276 22.0307 312.231 22.1016C312.186 22.1724 312.156 22.252 312.143 22.3352L312.02 23.1199C311.463 23.0769 310.903 23.0923 310.35 23.1657L310.063 22.3994C310.003 22.2323 309.882 22.0939 309.725 22.0116C309.567 21.9294 309.384 21.9094 309.212 21.9557L308.056 22.3224C307.976 22.3499 307.902 22.3935 307.839 22.4506C307.777 22.5077 307.727 22.577 307.692 22.6542C307.658 22.7315 307.639 22.8149 307.639 22.8995C307.638 22.984 307.655 23.0678 307.688 23.1456L307.971 23.8955C307.477 24.1388 307.012 24.4358 306.583 24.781L305.987 24.2585C305.924 24.1988 305.85 24.1522 305.769 24.1213C305.688 24.0905 305.601 24.076 305.515 24.0787C305.428 24.0815 305.343 24.1014 305.264 24.1373C305.185 24.1732 305.114 24.2243 305.055 24.2878L304.274 25.2046C304.165 25.3428 304.115 25.5182 304.134 25.6931C304.153 25.868 304.241 26.0283 304.377 26.1396L304.948 26.6365C304.651 27.1152 304.409 27.6256 304.226 28.1583L303.529 28.0006C303.446 27.9791 303.36 27.9751 303.276 27.9888C303.191 28.0026 303.111 28.0338 303.04 28.0805C302.968 28.1271 302.908 28.1882 302.862 28.2597C302.815 28.3312 302.785 28.4116 302.772 28.4956L302.588 29.7057C302.565 29.882 302.609 30.0604 302.711 30.2061C302.813 30.3519 302.966 30.4545 303.14 30.4941L303.799 30.6408C303.793 31.2325 303.85 31.8232 303.971 32.4027L303.378 32.5861C303.297 32.6131 303.223 32.6565 303.161 32.7134C303.098 32.7702 303.048 32.8394 303.013 32.9166C302.979 32.9937 302.96 33.0771 302.96 33.1616C302.959 33.2461 302.976 33.3298 303.01 33.4075L303.464 34.5827C303.527 34.7482 303.65 34.884 303.808 34.9632C303.967 35.0424 304.15 35.0591 304.32 35.0099L304.873 34.8266C305.169 35.3638 305.52 35.8694 305.92 36.3355L305.552 36.7609C305.445 36.8962 305.395 37.0684 305.414 37.2399C305.433 37.4115 305.519 37.5688 305.653 37.6776L306.616 38.5008C306.679 38.5585 306.753 38.6031 306.834 38.6322C306.914 38.6613 307 38.6742 307.085 38.6703C307.171 38.6664 307.255 38.6457 307.332 38.6094C307.41 38.573 307.479 38.5218 307.537 38.4587L307.885 38.0516C308.402 38.3828 308.952 38.6588 309.527 38.8749L309.442 39.4066C309.418 39.5793 309.461 39.7545 309.562 39.8971C309.663 40.0396 309.814 40.1389 309.985 40.1748L311.193 40.4315C311.274 40.4501 311.358 40.452 311.44 40.4369C311.522 40.4219 311.6 40.3902 311.669 40.344C311.738 40.2978 311.797 40.2379 311.841 40.1681C311.886 40.0983 311.916 40.0201 311.93 39.9383L312.014 39.4084C312.606 39.4443 313.199 39.4142 313.784 39.3186L313.981 39.8393C314.04 40.0011 314.159 40.1343 314.314 40.2117C314.468 40.289 314.647 40.3047 314.813 40.2555L315.943 39.8888C316.022 39.862 316.095 39.8194 316.156 39.7636C316.218 39.7079 316.268 39.6401 316.302 39.5646C316.337 39.489 316.355 39.4072 316.357 39.3243C316.358 39.2413 316.343 39.1588 316.311 39.082L316.109 38.5412C316.613 38.2755 317.085 37.9532 317.515 37.5804L317.968 37.9746C318.03 38.0314 318.102 38.0754 318.18 38.1041C318.259 38.1327 318.343 38.1454 318.426 38.1415C318.51 38.1376 318.592 38.1171 318.668 38.0812C318.743 38.0453 318.811 37.9947 318.867 37.9325L319.625 37.0414C319.731 36.9082 319.781 36.7391 319.764 36.5699C319.747 36.4008 319.664 36.245 319.533 36.1357L319.056 35.7176C319.34 35.2306 319.568 34.7134 319.736 34.1757L320.369 34.3169C320.45 34.337 320.534 34.3401 320.616 34.3259C320.698 34.3118 320.776 34.2808 320.845 34.2349C320.915 34.189 320.974 34.1292 321.018 34.0594C321.063 33.9895 321.093 33.9111 321.106 33.8292L321.29 32.6484C321.318 32.4757 321.279 32.2988 321.182 32.1534C321.084 32.008 320.934 31.9051 320.763 31.8655ZM311.25 36.0733C308.57 35.4903 306.721 32.8648 307.135 30.2062C307.55 27.5477 310.081 25.8811 312.771 26.499C315.461 27.1169 317.25 29.7424 316.821 32.3661C316.392 34.9898 313.912 36.6527 311.248 36.0733H311.25Z" fill="white"/>
<path d="M301.79 34.5773L301.299 34.4691C301.29 34.0572 301.237 33.6473 301.142 33.2462L301.624 33.094C301.682 33.0754 301.735 33.0451 301.78 33.005C301.825 32.9649 301.862 32.9158 301.887 32.861C301.912 32.8062 301.925 32.7467 301.926 32.6865C301.927 32.6262 301.915 32.5665 301.891 32.511L301.567 31.6731C301.523 31.5548 301.435 31.4575 301.322 31.4005C301.209 31.3435 301.078 31.3308 300.956 31.3651L300.448 31.5246C300.236 31.1633 299.989 30.8232 299.712 30.5089L300.061 30.1018C300.139 30.0039 300.175 29.8794 300.16 29.7554C300.146 29.6314 300.084 29.518 299.986 29.4399L299.286 28.8386C299.241 28.7965 299.188 28.7638 299.13 28.7422C299.072 28.7207 299.01 28.7107 298.948 28.7129C298.886 28.7151 298.825 28.7295 298.769 28.7551C298.713 28.7808 298.662 28.8172 298.62 28.8624L298.263 29.2786C297.907 29.0599 297.532 28.8757 297.141 28.7285L297.226 28.1675C297.241 28.0403 297.209 27.912 297.134 27.8076C297.06 27.7032 296.949 27.6302 296.823 27.6028L295.934 27.403C295.875 27.3873 295.813 27.3843 295.752 27.394C295.692 27.4037 295.634 27.426 295.583 27.4593C295.532 27.4927 295.488 27.5364 295.455 27.5877C295.422 27.6389 295.4 27.6966 295.391 27.7568L295.306 28.3197C294.899 28.2907 294.49 28.3036 294.085 28.3582L293.87 27.8081C293.823 27.6881 293.734 27.5896 293.618 27.5317C293.503 27.4737 293.37 27.4605 293.246 27.4946L292.404 27.755C292.346 27.7735 292.292 27.804 292.246 27.8446C292.2 27.8852 292.164 27.935 292.138 27.9906C292.113 28.0463 292.1 28.1066 292.099 28.1677C292.099 28.2288 292.111 28.2893 292.136 28.3453L292.347 28.8807C291.99 29.0566 291.653 29.2712 291.342 29.5206L290.904 29.1539C290.81 29.0686 290.687 29.0234 290.56 29.0282C290.433 29.033 290.313 29.0874 290.226 29.1796L289.665 29.8323C289.626 29.8814 289.597 29.9378 289.58 29.9981C289.563 30.0584 289.558 30.1215 289.566 30.1837C289.573 30.2459 289.593 30.306 289.624 30.3606C289.655 30.4151 289.696 30.463 289.746 30.5015L290.164 30.8554C289.95 31.2012 289.777 31.5703 289.648 31.9555L289.138 31.8454C289.078 31.8292 289.016 31.8258 288.954 31.8354C288.893 31.845 288.834 31.8675 288.782 31.9012C288.73 31.9349 288.685 31.9793 288.652 32.0313C288.618 32.0833 288.596 32.1418 288.586 32.203L288.457 33.0702C288.443 33.1981 288.477 33.3266 288.553 33.4307C288.629 33.5348 288.741 33.6069 288.868 33.6331L289.348 33.7358C289.347 34.1605 289.393 34.5841 289.485 34.999L289.054 35.1347C288.995 35.153 288.941 35.1834 288.895 35.2239C288.849 35.2645 288.812 35.3142 288.787 35.37C288.761 35.4257 288.748 35.4861 288.748 35.5473C288.747 35.6085 288.76 35.6691 288.785 35.7251L289.124 36.5685C289.172 36.6879 289.262 36.7854 289.378 36.842C289.494 36.8986 289.627 36.9102 289.751 36.8747L290.16 36.7463C290.381 37.1328 290.641 37.4959 290.935 37.8299L290.674 38.1361C290.635 38.1846 290.607 38.2402 290.59 38.2997C290.573 38.3593 290.568 38.4216 290.576 38.4829C290.584 38.5443 290.603 38.6036 290.634 38.6574C290.665 38.7111 290.706 38.7583 290.755 38.7961L291.465 39.3865C291.559 39.4699 291.682 39.5134 291.808 39.5076C291.934 39.5017 292.052 39.4471 292.137 39.3553L292.39 39.062C292.771 39.3005 293.175 39.499 293.597 39.6542L293.54 40.0374C293.526 40.1627 293.56 40.2886 293.635 40.3904C293.709 40.4923 293.819 40.5625 293.944 40.5874L294.831 40.7708C294.89 40.7852 294.951 40.7873 295.011 40.777C295.071 40.7666 295.128 40.744 295.179 40.7106C295.23 40.6772 295.273 40.6337 295.306 40.5828C295.339 40.532 295.361 40.4748 295.37 40.4151L295.427 40.0337C295.858 40.0586 296.29 40.0364 296.716 39.9677L296.865 40.3344C296.912 40.4518 297.001 40.5476 297.114 40.6029C297.228 40.6583 297.359 40.6691 297.48 40.6333L298.307 40.3674C298.364 40.3488 298.417 40.3185 298.462 40.2785C298.507 40.2385 298.543 40.1896 298.568 40.1349C298.593 40.0803 298.606 40.021 298.607 39.961C298.607 39.901 298.596 39.8414 298.572 39.7862L298.419 39.3957C298.786 39.2045 299.131 38.972 299.445 38.7026L299.781 38.9868C299.873 39.0696 299.995 39.1127 300.118 39.1069C300.242 39.1011 300.359 39.0467 300.442 38.9556L300.995 38.3121C301.033 38.2642 301.061 38.2093 301.078 38.1504C301.095 38.0916 301.1 38.03 301.093 37.9692C301.086 37.9085 301.067 37.8496 301.037 37.7962C301.008 37.7427 300.967 37.6956 300.919 37.6575L300.566 37.3569C300.77 37.0056 300.933 36.6322 301.052 36.2439L301.519 36.3448C301.578 36.3592 301.639 36.3615 301.698 36.3513C301.757 36.3411 301.814 36.3187 301.864 36.2856C301.914 36.2525 301.957 36.2094 301.99 36.159C302.022 36.1086 302.044 36.052 302.053 35.9928L302.186 35.1402C302.204 35.0138 302.173 34.8854 302.1 34.7808C302.026 34.6763 301.915 34.6035 301.79 34.5773ZM294.838 37.6227C292.872 37.2065 291.502 35.3235 291.788 33.4167C292.073 31.5099 293.909 30.2998 295.88 30.7417C297.852 31.1836 299.194 33.0592 298.901 34.9587C298.609 36.8581 296.795 38.0371 294.838 37.6227Z" fill="white"/>
<defs>
<linearGradient id="paint0_linear" x1="243.034" y1="38.8886" x2="227.683" y2="382.956" gradientUnits="userSpaceOnUse">
<stop stop-color="#E38DDD"/>
<stop offset="1" stop-color="#9571F6"/>
</linearGradient>
<linearGradient id="paint1_linear" x1="-105436" y1="13686.9" x2="-99187.6" y2="67720.9" gradientUnits="userSpaceOnUse">
<stop stop-color="#E38DDD"/>
<stop offset="1" stop-color="#9571F6"/>
</linearGradient>
<linearGradient id="paint2_linear" x1="-20927.6" y1="26012.2" x2="-19967.5" y2="47496.5" gradientUnits="userSpaceOnUse">
<stop stop-color="#E38DDD"/>
<stop offset="1" stop-color="#9571F6"/>
</linearGradient>
<linearGradient id="paint3_linear" x1="-27239.7" y1="67747.2" x2="-20207.3" y2="171164" gradientUnits="userSpaceOnUse">
<stop stop-color="#E38DDD"/>
<stop offset="1" stop-color="#9571F6"/>
</linearGradient>
<linearGradient id="paint4_linear" x1="130.893" y1="89.0774" x2="71.9748" y2="366.69" gradientUnits="userSpaceOnUse">
<stop stop-color="#FFC444"/>
<stop offset="0.31" stop-color="#FBA94A"/>
<stop offset="1" stop-color="#F36F56"/>
</linearGradient>
<linearGradient id="paint5_linear" x1="372557" y1="318067" x2="163996" y2="598721" gradientUnits="userSpaceOnUse">
<stop stop-color="#FFC444"/>
<stop offset="0.31" stop-color="#FBA94A"/>
<stop offset="1" stop-color="#F36F56"/>
</linearGradient>
<linearGradient id="paint6_linear" x1="175159" y1="311501" x2="-33668.3" y2="527064" gradientUnits="userSpaceOnUse">
<stop stop-color="#FFC444"/>
<stop offset="0.31" stop-color="#FBA94A"/>
<stop offset="1" stop-color="#F36F56"/>
</linearGradient>
<linearGradient id="paint7_linear" x1="483522" y1="25581.1" x2="473202" y2="163392" gradientUnits="userSpaceOnUse">
<stop stop-color="#FFC444"/>
<stop offset="0.31" stop-color="#FBA94A"/>
<stop offset="1" stop-color="#F36F56"/>
</linearGradient>
<linearGradient id="paint8_linear" x1="516730" y1="-345145" x2="169350" y2="876664" gradientUnits="userSpaceOnUse">
<stop stop-color="#FFC444"/>
<stop offset="0.31" stop-color="#FBA94A"/>
<stop offset="1" stop-color="#F36F56"/>
</linearGradient>
<linearGradient id="paint9_linear" x1="420.52" y1="243.905" x2="467.215" y2="468.719" gradientUnits="userSpaceOnUse">
<stop stop-color="#AA80F9"/>
<stop offset="1" stop-color="#6165D7"/>
</linearGradient>
<linearGradient id="paint10_linear" x1="445.537" y1="479.552" x2="459.632" y2="479.976" gradientUnits="userSpaceOnUse">
<stop stop-color="#444B8C"/>
<stop offset="1" stop-color="#26264F"/>
</linearGradient>
<linearGradient id="paint11_linear" x1="455.251" y1="474.862" x2="460.305" y2="474.862" gradientUnits="userSpaceOnUse">
<stop stop-color="#FFC444"/>
<stop offset="1" stop-color="#F36F56"/>
</linearGradient>
<linearGradient id="paint12_linear" x1="6287.82" y1="21221.2" x2="7500.59" y2="21563.7" gradientUnits="userSpaceOnUse">
<stop stop-color="#444B8C"/>
<stop offset="1" stop-color="#26264F"/>
</linearGradient>
<linearGradient id="paint13_linear" x1="26388.9" y1="21506.5" x2="26600.6" y2="21506.5" gradientUnits="userSpaceOnUse">
<stop stop-color="#FFC444"/>
<stop offset="1" stop-color="#F36F56"/>
</linearGradient>
<linearGradient id="paint14_linear" x1="161542" y1="193464" x2="122072" y2="321119" gradientUnits="userSpaceOnUse">
<stop stop-color="#AA80F9"/>
<stop offset="1" stop-color="#6165D7"/>
</linearGradient>
<linearGradient id="paint15_linear" x1="139259" y1="250094" x2="149812" y2="210175" gradientUnits="userSpaceOnUse">
<stop stop-color="#AA80F9"/>
<stop offset="1" stop-color="#6165D7"/>
</linearGradient>
<linearGradient id="paint16_linear" x1="115004" y1="123259" x2="92859.7" y2="208413" gradientUnits="userSpaceOnUse">
<stop stop-color="#AA80F9"/>
<stop offset="1" stop-color="#6165D7"/>
</linearGradient>
<linearGradient id="paint17_linear" x1="69238.4" y1="22448.4" x2="70591.5" y2="22448.4" gradientUnits="userSpaceOnUse">
<stop stop-color="#FFC444"/>
<stop offset="1" stop-color="#F36F56"/>
</linearGradient>
<linearGradient id="paint18_linear" x1="43040.8" y1="17793.5" x2="43656.6" y2="17793.5" gradientUnits="userSpaceOnUse">
<stop stop-color="#FFC444"/>
<stop offset="1" stop-color="#F36F56"/>
</linearGradient>
<linearGradient id="paint19_linear" x1="125341" y1="44712" x2="125281" y2="49675.6" gradientUnits="userSpaceOnUse">
<stop stop-color="#FFC444"/>
<stop offset="1" stop-color="#F36F56"/>
</linearGradient>
<linearGradient id="paint20_linear" x1="74440.5" y1="43062.9" x2="75377.2" y2="43397.5" gradientUnits="userSpaceOnUse">
<stop stop-color="#FFC444"/>
<stop offset="1" stop-color="#F36F56"/>
</linearGradient>
<linearGradient id="paint21_linear" x1="15301.3" y1="7795.66" x2="15342.9" y2="7810.54" gradientUnits="userSpaceOnUse">
<stop stop-color="#FFC444"/>
<stop offset="1" stop-color="#F36F56"/>
</linearGradient>
<linearGradient id="paint22_linear" x1="-103468" y1="24983.9" x2="-127576" y2="56362.5" gradientUnits="userSpaceOnUse">
<stop stop-color="#FFC444"/>
<stop offset="1" stop-color="#F36F56"/>
</linearGradient>
<linearGradient id="paint23_linear" x1="227321" y1="125253" x2="235412" y2="160474" gradientUnits="userSpaceOnUse">
<stop stop-color="#FFC444"/>
<stop offset="1" stop-color="#F36F56"/>
</linearGradient>
<linearGradient id="paint24_linear" x1="119960" y1="94055.2" x2="131132" y2="121427" gradientUnits="userSpaceOnUse">
<stop stop-color="#FFC444"/>
<stop offset="1" stop-color="#F36F56"/>
</linearGradient>
<linearGradient id="paint25_linear" x1="-281176" y1="70562.1" x2="-287554" y2="100322" gradientUnits="userSpaceOnUse">
<stop stop-color="#AA80F9"/>
<stop offset="1" stop-color="#6165D7"/>
</linearGradient>
<linearGradient id="paint26_linear" x1="24117.6" y1="23166.9" x2="41299.4" y2="44970.4" gradientUnits="userSpaceOnUse">
<stop stop-color="#AA80F9"/>
<stop offset="1" stop-color="#6165D7"/>
</linearGradient>
<linearGradient id="paint27_linear" x1="15216.3" y1="17485.3" x2="26629.3" y2="33949.4" gradientUnits="userSpaceOnUse">
<stop stop-color="#AA80F9"/>
<stop offset="1" stop-color="#6165D7"/>
</linearGradient>
<linearGradient id="paint28_linear" x1="10.298" y1="322.919" x2="99.789" y2="322.919" gradientUnits="userSpaceOnUse">
<stop stop-color="#26264F"/>
<stop offset="1" stop-color="#444B8C"/>
</linearGradient>
<linearGradient id="paint29_linear" x1="-35707.2" y1="16191.1" x2="-35844.2" y2="17853.8" gradientUnits="userSpaceOnUse">
<stop stop-color="#26264F"/>
<stop offset="1" stop-color="#444B8C"/>
</linearGradient>
<linearGradient id="paint30_linear" x1="127.527" y1="318.071" x2="128.065" y2="278.739" gradientUnits="userSpaceOnUse">
<stop stop-color="#893976"/>
<stop offset="1" stop-color="#311944"/>
</linearGradient>
<linearGradient id="paint31_linear" x1="-26835.2" y1="28317.5" x2="-27120.7" y2="30978.3" gradientUnits="userSpaceOnUse">
<stop stop-color="#26264F"/>
<stop offset="1" stop-color="#444B8C"/>
</linearGradient>
<linearGradient id="paint32_linear" x1="16457" y1="19892.4" x2="16414.8" y2="17969.8" gradientUnits="userSpaceOnUse">
<stop stop-color="#893976"/>
<stop offset="1" stop-color="#311944"/>
</linearGradient>
<linearGradient id="paint33_linear" x1="136.174" y1="254.14" x2="110.067" y2="254.14" gradientUnits="userSpaceOnUse">
<stop stop-color="#AB316D"/>
<stop offset="1" stop-color="#792D3D"/>
</linearGradient>
<linearGradient id="paint34_linear" x1="48538.3" y1="217637" x2="51745.9" y2="217637" gradientUnits="userSpaceOnUse">
<stop stop-color="#AB316D"/>
<stop offset="1" stop-color="#792D3D"/>
</linearGradient>
<linearGradient id="paint35_linear" x1="106374" y1="211571" x2="121377" y2="211571" gradientUnits="userSpaceOnUse">
<stop stop-color="#AB316D"/>
<stop offset="1" stop-color="#792D3D"/>
</linearGradient>
<linearGradient id="paint36_linear" x1="115798" y1="108390" x2="155755" y2="70795.8" gradientUnits="userSpaceOnUse">
<stop stop-color="#26264F"/>
<stop offset="1" stop-color="#444B8C"/>
</linearGradient>
<linearGradient id="paint37_linear" x1="-4841.16" y1="169.249" x2="-5502.27" y2="-147.931" gradientUnits="userSpaceOnUse">
<stop stop-color="#893976"/>
<stop offset="1" stop-color="#311944"/>
</linearGradient>
<linearGradient id="paint38_linear" x1="170.206" y1="156.076" x2="69.0263" y2="272.417" gradientUnits="userSpaceOnUse">
<stop stop-color="#FF9085"/>
<stop offset="1" stop-color="#FB6FBB"/>
</linearGradient>
<linearGradient id="paint39_linear" x1="-229810" y1="122871" x2="-251679" y2="207706" gradientUnits="userSpaceOnUse">
<stop stop-color="#FF9085"/>
<stop offset="1" stop-color="#FB6FBB"/>
</linearGradient>
<linearGradient id="paint40_linear" x1="147.461" y1="163.153" x2="163.722" y2="190.218" gradientUnits="userSpaceOnUse">
<stop stop-color="#6165D7"/>
<stop offset="1" stop-color="#AA80F9"/>
</linearGradient>
<linearGradient id="paint41_linear" x1="-79676.1" y1="55380.8" x2="-70710.9" y2="60050" gradientUnits="userSpaceOnUse">
<stop stop-color="#26264F"/>
<stop offset="1" stop-color="#444B8C"/>
</linearGradient>
<linearGradient id="paint42_linear" x1="-21141.8" y1="5193.73" x2="-21097.2" y2="5584.92" gradientUnits="userSpaceOnUse">
<stop stop-color="#AA80F9"/>
<stop offset="1" stop-color="#6165D7"/>
</linearGradient>
<linearGradient id="paint43_linear" x1="-57416.5" y1="53147.7" x2="-50280.5" y2="55924.4" gradientUnits="userSpaceOnUse">
<stop stop-color="#26264F"/>
<stop offset="1" stop-color="#444B8C"/>
</linearGradient>
<linearGradient id="paint44_linear" x1="-28425" y1="11205.2" x2="-29608.6" y2="11205.2" gradientUnits="userSpaceOnUse">
<stop stop-color="#893976"/>
<stop offset="1" stop-color="#311944"/>
</linearGradient>
<linearGradient id="paint45_linear" x1="70455.6" y1="134729" x2="120320" y2="134729" gradientUnits="userSpaceOnUse">
<stop stop-color="#FF9085"/>
<stop offset="1" stop-color="#FB6FBB"/>
</linearGradient>
<linearGradient id="paint46_linear" x1="-98828" y1="79905.6" x2="-119065" y2="131039" gradientUnits="userSpaceOnUse">
<stop stop-color="#FF9085"/>
<stop offset="1" stop-color="#FB6FBB"/>
</linearGradient>
<linearGradient id="paint47_linear" x1="-61643.6" y1="8382.37" x2="-62351.3" y2="5163.2" gradientUnits="userSpaceOnUse">
<stop stop-color="#893976"/>
<stop offset="1" stop-color="#311944"/>
</linearGradient>
<linearGradient id="paint48_linear" x1="-21630.4" y1="8466.18" x2="-23115.6" y2="7320.88" gradientUnits="userSpaceOnUse">
<stop stop-color="#893976"/>
<stop offset="1" stop-color="#311944"/>
</linearGradient>
<linearGradient id="paint49_linear" x1="247503" y1="112353" x2="317320" y2="112353" gradientUnits="userSpaceOnUse">
<stop stop-color="#FF9085"/>
<stop offset="1" stop-color="#FB6FBB"/>
</linearGradient>
<linearGradient id="paint50_linear" x1="403098" y1="265530" x2="374501" y2="279595" gradientUnits="userSpaceOnUse">
<stop stop-color="#FF9085"/>
<stop offset="1" stop-color="#FB6FBB"/>
</linearGradient>
<linearGradient id="paint51_linear" x1="53371.2" y1="17970.9" x2="57985.3" y2="17970.9" gradientUnits="userSpaceOnUse">
<stop stop-color="#FF9085"/>
<stop offset="1" stop-color="#FB6FBB"/>
</linearGradient>
<linearGradient id="paint52_linear" x1="76717.8" y1="52003.8" x2="74029" y2="53719.4" gradientUnits="userSpaceOnUse">
<stop stop-color="#FF9085"/>
<stop offset="1" stop-color="#FB6FBB"/>
</linearGradient>
<linearGradient id="paint53_linear" x1="54279.7" y1="18978.7" x2="58834.5" y2="18978.7" gradientUnits="userSpaceOnUse">
<stop stop-color="#FF9085"/>
<stop offset="1" stop-color="#FB6FBB"/>
</linearGradient>
<linearGradient id="paint54_linear" x1="50606.8" y1="35497" x2="49701.4" y2="36107.1" gradientUnits="userSpaceOnUse">
<stop stop-color="#FF9085"/>
<stop offset="1" stop-color="#FB6FBB"/>
</linearGradient>
<linearGradient id="paint55_linear" x1="55166.4" y1="19963.3" x2="59663.5" y2="19963.3" gradientUnits="userSpaceOnUse">
<stop stop-color="#FF9085"/>
<stop offset="1" stop-color="#FB6FBB"/>
</linearGradient>
<linearGradient id="paint56_linear" x1="38340.3" y1="27413.4" x2="37952.1" y2="27688.4" gradientUnits="userSpaceOnUse">
<stop stop-color="#FF9085"/>
<stop offset="1" stop-color="#FB6FBB"/>
</linearGradient>
<linearGradient id="paint57_linear" x1="56027.2" y1="20923.2" x2="60467.5" y2="20923.2" gradientUnits="userSpaceOnUse">
<stop stop-color="#FF9085"/>
<stop offset="1" stop-color="#FB6FBB"/>
</linearGradient>
<linearGradient id="paint58_linear" x1="112340" y1="73614.8" x2="106195" y2="77402.1" gradientUnits="userSpaceOnUse">
<stop stop-color="#FF9085"/>
<stop offset="1" stop-color="#FB6FBB"/>
</linearGradient>
<linearGradient id="paint59_linear" x1="56864.1" y1="21861.1" x2="61248.3" y2="21861.1" gradientUnits="userSpaceOnUse">
<stop stop-color="#FF9085"/>
<stop offset="1" stop-color="#FB6FBB"/>
</linearGradient>
<linearGradient id="paint60_linear" x1="102286" y1="67849.4" x2="97380.5" y2="70894.3" gradientUnits="userSpaceOnUse">
<stop stop-color="#FF9085"/>
<stop offset="1" stop-color="#FB6FBB"/>
</linearGradient>
<linearGradient id="paint61_linear" x1="57676.5" y1="22777.8" x2="62006" y2="22777.8" gradientUnits="userSpaceOnUse">
<stop stop-color="#FF9085"/>
<stop offset="1" stop-color="#FB6FBB"/>
</linearGradient>
<linearGradient id="paint62_linear" x1="121069" y1="78948.2" x2="114055" y2="83247.4" gradientUnits="userSpaceOnUse">
<stop stop-color="#FF9085"/>
<stop offset="1" stop-color="#FB6FBB"/>
</linearGradient>
<linearGradient id="paint63_linear" x1="58470.7" y1="23670.9" x2="62746.8" y2="23670.9" gradientUnits="userSpaceOnUse">
<stop stop-color="#FF9085"/>
<stop offset="1" stop-color="#FB6FBB"/>
</linearGradient>
<linearGradient id="paint64_linear" x1="93417.6" y1="62734.3" x2="89549.8" y2="65152.4" gradientUnits="userSpaceOnUse">
<stop stop-color="#FF9085"/>
<stop offset="1" stop-color="#FB6FBB"/>
</linearGradient>
<linearGradient id="paint65_linear" x1="59238.6" y1="24544.6" x2="63461.5" y2="24544.6" gradientUnits="userSpaceOnUse">
<stop stop-color="#FF9085"/>
<stop offset="1" stop-color="#FB6FBB"/>
</linearGradient>
<linearGradient id="paint66_linear" x1="63171.9" y1="43885.4" x2="61689.5" y2="44851.4" gradientUnits="userSpaceOnUse">
<stop stop-color="#FF9085"/>
<stop offset="1" stop-color="#FB6FBB"/>
</linearGradient>
<linearGradient id="paint67_linear" x1="-273758" y1="170190" x2="-272765" y2="195071" gradientUnits="userSpaceOnUse">
<stop stop-color="#FF9085"/>
<stop offset="1" stop-color="#FB6FBB"/>
</linearGradient>
<linearGradient id="paint68_linear" x1="-23070.5" y1="65459.9" x2="-4568.17" y2="78671.5" gradientUnits="userSpaceOnUse">
<stop stop-color="#FF9085"/>
<stop offset="1" stop-color="#FB6FBB"/>
</linearGradient>
<linearGradient id="paint69_linear" x1="-28060.3" y1="45057.9" x2="-18508.7" y2="54794.8" gradientUnits="userSpaceOnUse">
<stop stop-color="#FF9085"/>
<stop offset="1" stop-color="#FB6FBB"/>
</linearGradient>
<linearGradient id="paint70_linear" x1="-56527.4" y1="-14465.2" x2="-70116.9" y2="-585.999" gradientUnits="userSpaceOnUse">
<stop stop-color="#FF9085"/>
<stop offset="1" stop-color="#FB6FBB"/>
</linearGradient>
<linearGradient id="paint71_linear" x1="166023" y1="82745.5" x2="168061" y2="100295" gradientUnits="userSpaceOnUse">
<stop stop-color="#FF9085"/>
<stop offset="1" stop-color="#FB6FBB"/>
</linearGradient>
<linearGradient id="paint72_linear" x1="84867.9" y1="52962.4" x2="89450.2" y2="66772.7" gradientUnits="userSpaceOnUse">
<stop stop-color="#FF9085"/>
<stop offset="1" stop-color="#FB6FBB"/>
</linearGradient>
</defs>
</svg>
